<?xml version="1.0" encoding="UTF-8" standalone="no"?>
<svg
   clip-rule="evenodd"
   fill-rule="evenodd"
   height="1318.0"
   image-rendering="optimizeQuality"
   preserveAspectRatio="xMidYMid meet"
   shape-rendering="geometricPrecision"
   text-rendering="geometricPrecision"
   version="1.0"
   viewBox="0.0 0.0 1318.0 1318.0"
   width="1318.0"
   zoomAndPan="magnify"
   id="svg2"
   sodipodi:docname="s-1 (1).svg"
   inkscape:version="1.4 (e7c3feb1, 2024-10-09)"
   xmlns:inkscape="http://www.inkscape.org/namespaces/inkscape"
   xmlns:sodipodi="http://sodipodi.sourceforge.net/DTD/sodipodi-0.dtd"
   xmlns="http://www.w3.org/2000/svg"
   xmlns:svg="http://www.w3.org/2000/svg">
  <defs
     id="defs2" />
  <sodipodi:namedview
     id="namedview2"
     pagecolor="#ffffff"
     bordercolor="#000000"
     borderopacity="0.25"
     inkscape:showpageshadow="2"
     inkscape:pageopacity="0.0"
     inkscape:pagecheckerboard="0"
     inkscape:deskcolor="#d1d1d1"
     inkscape:zoom="0.46797583"
     inkscape:cx="738.286"
     inkscape:cy="720.12267"
     inkscape:window-width="1680"
     inkscape:window-height="997"
     inkscape:window-x="0"
     inkscape:window-y="25"
     inkscape:window-maximized="1"
     inkscape:current-layer="svg2" />
  <g
     fill="#3e4095"
     id="change1_1"
     style="fill:#ffcb71;fill-opacity:1">
    <path
       d="M359 259l181 0 -34 -157c-23,-5 -40,-26 -40,-50 0,-29 23,-52 52,-52 29,0 52,23 52,52 0,24 -17,45 -40,50l34 157 181 0 -34 -157c-22,-6 -39,-26 -39,-50 0,-29 23,-52 52,-52 28,0 52,23 52,52 0,25 -18,45 -41,50l34 157 192 0c48,0 89,36 96,83l158 -34c2,-27 24,-48 52,-48 28,0 51,23 51,52 0,29 -23,52 -51,52 -22,0 -41,-14 -49,-33l-160 35 0 180 157 -33c2,-26 25,-47 52,-47 28,0 51,23 51,52 0,29 -23,52 -51,52 -23,0 -42,-14 -49,-34l-160 34 0 181 157 -33c3,-26 25,-46 52,-46 28,0 51,23 51,52 0,28 -23,52 -51,52 -23,0 -42,-15 -49,-35l-160 34 0 185c0,48 -36,89 -83,96l34 159c27,1 49,24 49,52 0,28 -23,51 -52,51 -28,0 -51,-23 -51,-51 0,-22 12,-40 31,-48l-35 -162 -181 0 34 158c27,2 48,24 48,52 0,28 -23,51 -52,51 -28,0 -51,-23 -51,-51 0,-22 13,-41 32,-48l-35 -162 -181 0 34 158c27,2 47,24 47,52 0,28 -23,51 -52,51 -28,0 -51,-23 -51,-51 0,-23 14,-41 33,-49l-35 -161 -183 0c-45,0 -83,-31 -95,-72l-161 34c-6,23 -26,39 -50,39 -29,0 -52,-23 -52,-52 0,-28 23,-51 52,-51 25,0 45,17 50,40l158 -33c0,-1 0,-2 0,-2l0 -179 -158 34c-7,21 -27,37 -50,37 -29,0 -52,-23 -52,-52 0,-28 23,-51 52,-51 25,0 46,18 51,42l157 -34 0 -181 -159 34c-6,21 -26,36 -49,36 -29,0 -52,-23 -52,-52 0,-28 23,-51 52,-51 25,0 47,18 51,43l157 -34 0 -196c0,-46 33,-84 76,-94l-34 -159c-24,-5 -42,-26 -42,-51 0,-29 23,-52 52,-52 29,0 52,23 52,52 0,24 -17,44 -39,50l34 157zm20 27l560 0c49,0 89,40 89,89l0 566c0,49 -40,89 -89,89l-560 0c-49,0 -89,-40 -89,-89l0 -566c0,-49 40,-89 89,-89z"
       id="path1"
       style="fill:#ffcb71;fill-opacity:1" />
    <path
       d="M790 847l-81 0 -33 -86 -150 0 -31 86 -81 0 146 -375 80 0 150 375zm-138 -149l-53 -139 -50 139 103 0zm176 149l0 -375 76 0 0 375 -76 0z"
       fill-rule="nonzero"
       id="path2"
       style="fill:#ffcb71;fill-opacity:1" />
  </g>
</svg>
