<?xml version="1.0" encoding="UTF-8" standalone="no"?>
<svg
   height="958"
   preserveAspectRatio="xMidYMid meet"
   version="1.0"
   viewBox="20.8 20.8 958.3 958.3"
   width="958"
   zoomAndPan="magnify"
   id="svg1"
   sodipodi:docname="s-1 (2).svg"
   inkscape:version="1.4 (e7c3feb1, 2024-10-09)"
   xmlns:inkscape="http://www.inkscape.org/namespaces/inkscape"
   xmlns:sodipodi="http://sodipodi.sourceforge.net/DTD/sodipodi-0.dtd"
   xmlns="http://www.w3.org/2000/svg"
   xmlns:svg="http://www.w3.org/2000/svg">
  <defs
     id="defs1" />
  <sodipodi:namedview
     id="namedview1"
     pagecolor="#ffffff"
     bordercolor="#000000"
     borderopacity="0.25"
     inkscape:showpageshadow="2"
     inkscape:pageopacity="0.0"
     inkscape:pagecheckerboard="0"
     inkscape:deskcolor="#d1d1d1"
     inkscape:zoom="0.54870288"
     inkscape:cx="494.80331"
     inkscape:cy="420.99287"
     inkscape:window-width="1680"
     inkscape:window-height="997"
     inkscape:window-x="0"
     inkscape:window-y="25"
     inkscape:window-maximized="1"
     inkscape:current-layer="svg1" />
  <g
     id="change1_1"
     style="fill:#ffcb71;fill-opacity:1">
    <path
       d="M918.58238,20.83333H81.41762c-33.41172,0-60.58429,27.17257-60.58429,60.58429v837.16475c0,33.41172,27.17257,60.58429,60.58429,60.58429h837.16475c33.41172,0,60.58429-27.17257,60.58429-60.58429V81.41762c0-33.41172-27.17257-60.58429-60.58429-60.58429ZM81.41762,53.87931h837.16475c15.1891,0,27.53831,12.34921,27.53831,27.53831v27.53831H53.87931v-27.53831c0-15.1891,12.34921-27.53831,27.53831-27.53831ZM186.06322,946.12069V230.12452h627.87356v715.99617H186.06322ZM918.58238,946.12069h-71.59962V213.60153c0-9.12207-7.40092-16.52299-16.52299-16.52299H169.54023c-9.12207,0-16.52299,7.40092-16.52299,16.52299v732.51916h-71.59962c-15.1891,0-27.53831-12.34921-27.53831-27.53831V142.00192h892.24138v776.58046c0,15.1891-12.34921,27.53831-27.53831,27.53831ZM742.33716,461.44636h-11.82211l-49.56897-99.13793h39.36043c9.12207,0,16.52299-7.40092,16.52299-16.52299s-7.40092-16.52299-16.52299-16.52299h-162.30125c-7.24494-25.34923-30.35938-44.0613-58.00526-44.0613s-50.76032,18.71207-58.00526,44.0613h-162.30125c-9.12207,0-16.52299,7.40092-16.52299,16.52299s7.40092,16.52299,16.52299,16.52299h39.36043l-49.56897,99.13793h-11.82211c-9.12207,0-16.52299,7.40092-16.52299,16.52299v22.03065c0,57.70137,46.94422,104.64559,104.64559,104.64559s104.64559-46.94422,104.64559-104.64559v-22.03065c0-9.12207-7.40092-16.52299-16.52299-16.52299h-11.82211l-49.56897-99.13793h69.47777c5.73356,20.06209,21.42018,35.74871,41.48228,41.48228v250.42386c0,1.95377.48945,3.76769,1.11202,5.50766h-96.1192c-16.93176,0-32.14238,11.33804-36.96158,27.55983l-13.12373,44.0613c-3.50683,11.78984-1.29086,24.2036,6.04552,34.05715,7.35789,9.83204,18.60988,15.4903,30.89455,15.4903h249.35083c12.28467,0,23.53665-5.65826,30.89455-15.4903,7.33638-9.85355,9.55235-22.26731,6.04552-34.05715l-13.12373-44.0613c-4.8192-16.22179-20.02982-27.55983-36.96158-27.55983h-96.1192c.62257-1.73997,1.11202-3.55389,1.11202-5.50766v-250.42386c20.06209-5.73356,35.74871-21.42018,41.48228-41.48228h69.47777l-49.56897,99.13793h-11.82211c-9.12207,0-16.52299,7.40092-16.52299,16.52299v22.03065c0,57.70137,46.94422,104.64559,104.64559,104.64559s104.64559-46.94422,104.64559-104.64559v-22.03065c0-9.12207-7.40092-16.52299-16.52299-16.52299ZM417.38506,500c0,39.47876-32.12086,71.59962-71.59962,71.59962s-71.59962-32.12086-71.59962-71.59962v-5.50766h143.19923v5.50766ZM306.43577,461.44636l39.34967-78.72085,39.34967,78.72085h-78.69934ZM616.82269,696.70532l13.12373,44.0613c.68846,2.30203-.25817,4.04469-.86057,4.86223-.62391.83906-2.02234,2.21597-4.41043,2.21597h-249.35083c-2.38809,0-3.78652-1.37692-4.41043-2.21597-.6024-.81754-1.54903-2.5602-.86057-4.86223l13.12373-44.0613c.68846-2.32355,2.8614-3.93712,5.29252-3.93712h223.06034c2.43112,0,4.60406,1.61357,5.29252,3.93712ZM500,373.32375c-15.1891,0-27.53831-12.34921-27.53831-27.53831s12.34921-27.53831,27.53831-27.53831,27.53831,12.34921,27.53831,27.53831-12.34921,27.53831-27.53831,27.53831ZM654.21456,382.72551l39.34967,78.72085h-78.69934l39.34967-78.72085ZM725.81418,500c0,39.47876-32.12086,71.59962-71.59962,71.59962s-71.59962-32.12086-71.59962-71.59962v-5.50766h143.19923v5.50766ZM714.79885,852.49042c0,9.12207-7.40092,16.52299-16.52299,16.52299h-396.55172c-9.12207,0-16.52299-7.40092-16.52299-16.52299s7.40092-16.52299,16.52299-16.52299h396.55172c9.12207,0,16.52299,7.40092,16.52299,16.52299Z"
       id="path1"
       style="fill:#ffcb71;fill-opacity:1" />
  </g>
</svg>
