<?xml version="1.0" encoding="UTF-8" standalone="no"?>
<svg
   data-name="Layer 1"
   height="432"
   preserveAspectRatio="xMidYMid meet"
   version="1.0"
   viewBox="16.0 40.0 480.0 432.0"
   width="480"
   zoomAndPan="magnify"
   id="svg1"
   sodipodi:docname="s-1 (5).svg"
   inkscape:version="1.4 (e7c3feb1, 2024-10-09)"
   xmlns:inkscape="http://www.inkscape.org/namespaces/inkscape"
   xmlns:sodipodi="http://sodipodi.sourceforge.net/DTD/sodipodi-0.dtd"
   xmlns="http://www.w3.org/2000/svg"
   xmlns:svg="http://www.w3.org/2000/svg">
  <defs
     id="defs1" />
  <sodipodi:namedview
     id="namedview1"
     pagecolor="#ffffff"
     bordercolor="#000000"
     borderopacity="0.25"
     inkscape:showpageshadow="2"
     inkscape:pageopacity="0.0"
     inkscape:pagecheckerboard="0"
     inkscape:deskcolor="#d1d1d1"
     inkscape:zoom="1.1158231"
     inkscape:cx="300.6749"
     inkscape:cy="224.94605"
     inkscape:window-width="1680"
     inkscape:window-height="997"
     inkscape:window-x="0"
     inkscape:window-y="25"
     inkscape:window-maximized="1"
     inkscape:current-layer="svg1" />
  <g
     id="change1_1"
     style="fill:#ffcb71;fill-opacity:1">
    <path
       d="M181.901,92.117c29.352,0,55.927,11.898,75.163,31.134,19.236,19.236,31.134,45.811,31.134,75.163s-11.898,55.927-31.134,75.163c-19.236,19.236-45.811,31.134-75.163,31.134s-55.927-11.898-75.163-31.134c-19.236-19.236-31.134-45.811-31.134-75.163s11.898-55.927,31.134-75.163c19.236-19.236,45.811-31.134,75.163-31.134h0ZM132.202,255.437c-5.954,1.903-11.443,4.135-16.367,6.642.392.407.788.812,1.188,1.212,8.217,8.217,17.986,14.881,28.829,19.518-2.403-3.361-4.651-7.056-6.723-11.051-2.583-4.979-4.906-10.447-6.926-16.321h0ZM217.521,251.745c-10.957-2.296-22.978-3.56-35.62-3.56s-24.663,1.264-35.62,3.56c1.701,4.804,3.626,9.278,5.747,13.365,8.03,15.479,18.622,25.054,29.874,25.054s21.844-9.575,29.874-25.054c2.12-4.088,4.046-8.562,5.746-13.365h0ZM247.967,262.08c-4.924-2.508-10.413-4.739-16.367-6.642-2.021,5.875-4.343,11.342-6.926,16.321-2.073,3.996-4.321,7.691-6.723,11.051,10.843-4.637,20.612-11.301,28.828-19.518.4-.4.796-.805,1.189-1.212h0ZM235.637,241.498c7.97,2.529,15.269,5.609,21.709,9.142,8.955-12.913,14.681-28.236,16.007-44.8l-32.947-.065c-.467,12.646-2.129,24.69-4.77,35.723h0ZM142.2,237.774c12.263-2.664,25.678-4.136,39.701-4.136s27.438,1.472,39.702,4.136c2.326-9.853,3.804-20.646,4.25-32.028l-87.911-.174c.438,11.446,1.919,22.299,4.257,32.202h0ZM106.456,250.639c6.44-3.533,13.739-6.612,21.709-9.141-2.657-11.1-4.323-23.225-4.778-35.954l-32.969-.065c1.272,16.703,7.017,32.154,16.037,45.161h0ZM231.6,141.391c5.954-1.903,11.443-4.135,16.367-6.642-.392-.407-.788-.812-1.188-1.212-8.217-8.217-17.986-14.881-28.828-19.518,2.403,3.361,4.651,7.056,6.723,11.051,2.583,4.979,4.905,10.447,6.926,16.321h0ZM146.281,145.083c10.957,2.296,22.978,3.56,35.62,3.56s24.663-1.264,35.62-3.56c-1.701-4.804-3.626-9.278-5.747-13.365-8.03-15.479-18.622-25.054-29.874-25.054s-21.844,9.575-29.874,25.054c-2.121,4.088-4.046,8.562-5.746,13.365h0ZM115.835,134.749c4.924,2.508,10.413,4.739,16.367,6.642,2.021-5.874,4.343-11.342,6.926-16.321,2.073-3.996,4.321-7.691,6.723-11.051-10.843,4.637-20.612,11.301-28.829,19.518-.4.4-.796.805-1.189,1.212h0ZM128.165,155.33c-7.97-2.529-15.269-5.609-21.709-9.142-8.955,12.913-14.681,28.235-16.007,44.799l32.947.065c.467-12.645,2.128-24.69,4.77-35.723h0ZM221.603,159.054c-12.264,2.664-25.678,4.136-39.701,4.136s-27.438-1.472-39.702-4.136c-2.326,9.853-3.804,20.646-4.251,32.028l87.911.174c-.438-11.446-1.919-22.298-4.257-32.201h0ZM257.346,146.189c-6.44,3.533-13.739,6.612-21.709,9.141,2.657,11.1,4.322,23.224,4.778,35.954l32.968.065c-1.272-16.702-7.016-32.154-16.037-45.161h0ZM387.009,191.74c-1.707-1.707-4.067-2.764-6.674-2.764s-4.967,1.056-6.674,2.764c-1.707,1.707-2.764,4.067-2.764,6.674s1.056,4.967,2.764,6.674c1.707,1.707,4.067,2.764,6.674,2.764s4.967-1.056,6.674-2.764c1.707-1.707,2.764-4.067,2.764-6.674s-1.056-4.967-2.764-6.674h0ZM419.085,107.38c-1.707-1.707-4.067-2.764-6.674-2.764s-4.967,1.056-6.674,2.764-2.764,4.067-2.764,6.674,1.056,4.967,2.764,6.674c1.707,1.707,4.067,2.764,6.674,2.764s4.967-1.056,6.674-2.764c1.707-1.707,2.764-4.067,2.764-6.674s-1.056-4.967-2.764-6.674h0ZM412.411,90.069c6.622,0,12.619,2.685,16.959,7.025,4.34,4.34,7.025,10.337,7.025,16.959s-2.685,12.619-7.025,16.959c-4.34,4.34-10.337,7.026-16.959,7.026s-12.619-2.685-16.959-7.026c-2.679-2.678-4.726-5.988-5.902-9.686h-70.533l-15.656,27.116c-2.008,3.468-6.448,4.651-9.916,2.642-3.468-2.008-4.651-6.448-2.642-9.916l17.755-30.753c1.344-2.321,3.777-3.618,6.279-3.62v-.016h74.713c1.176-3.698,3.223-7.007,5.902-9.686,4.34-4.34,10.337-7.025,16.959-7.025h0ZM419.085,276.383c-1.707-1.707-4.067-2.764-6.674-2.764s-4.967,1.056-6.674,2.764-2.764,4.067-2.764,6.674,1.056,4.967,2.764,6.674c1.707,1.707,4.067,2.764,6.674,2.764s4.967-1.056,6.674-2.764c1.707-1.707,2.764-4.067,2.764-6.674s-1.056-4.967-2.764-6.674h0ZM412.411,259.072c6.622,0,12.619,2.685,16.959,7.025,4.34,4.34,7.025,10.337,7.025,16.959s-2.685,12.619-7.025,16.959c-4.34,4.34-10.337,7.026-16.959,7.026s-12.619-2.685-16.959-7.026c-2.679-2.678-4.726-5.988-5.902-9.686h-74.713c-2.877,0-5.363-1.671-6.543-4.094l-17.564-30.422c-2.008-3.468-.825-7.907,2.642-9.916,3.468-2.008,7.907-.825,9.916,2.642l15.729,27.243h70.533c1.176-3.698,3.223-7.007,5.902-9.686,4.34-4.34,10.337-7.025,16.959-7.025h0ZM308.925,205.687c-4.017,0-7.273-3.257-7.273-7.273s3.257-7.273,7.273-7.273h48.55c1.176-3.698,3.223-7.007,5.902-9.686,4.34-4.34,10.337-7.026,16.959-7.026s12.619,2.685,16.959,7.026c4.34,4.34,7.026,10.337,7.026,16.959s-2.685,12.619-7.026,16.959c-4.34,4.34-10.337,7.025-16.959,7.025s-12.619-2.685-16.959-7.025c-2.678-2.678-4.726-5.988-5.902-9.686h-48.55ZM363.649,436.137h-215.296c-2.926,0-5.592,1.202-7.528,3.139-1.937,1.937-3.139,4.602-3.139,7.528s1.202,5.593,3.139,7.53,4.602,3.139,7.528,3.139h215.296c2.926,0,5.592-1.203,7.529-3.139,1.937-1.937,3.139-4.602,3.139-7.528s-1.202-5.593-3.139-7.53c-1.937-1.937-4.602-3.139-7.529-3.139h0ZM288.489,396.761h-64.978v24.829h64.978v-24.829h0ZM487.782,39.98H24.218c-2.255,0-4.307.925-5.799,2.416l-.029.028c-1.49,1.492-2.415,3.544-2.415,5.799v340.295c0,2.275.926,4.338,2.415,5.828s3.553,2.415,5.828,2.415h184.746v24.829h-60.612c-6.942,0-13.247,2.835-17.813,7.401-4.566,4.566-7.401,10.872-7.401,17.815s2.835,13.247,7.401,17.813c4.566,4.566,10.872,7.401,17.813,7.401h215.296c6.942,0,13.247-2.835,17.814-7.401,4.566-4.566,7.401-10.872,7.401-17.815s-2.835-13.247-7.401-17.813c-4.567-4.566-10.872-7.401-17.814-7.401h-60.613v-24.829h184.746c2.173,0,4.168-.867,5.658-2.279l.169-.165c1.492-1.504,2.416-3.557,2.416-5.799V48.223c0-2.275-.923-4.336-2.415-5.828-1.49-1.49-3.553-2.415-5.828-2.415h0ZM481.478,345.894v36.32H30.522v-36.32h450.956ZM30.522,331.348h450.956V54.527H30.522v276.821h0ZM58.646,372.568c-4.017,0-7.273-3.257-7.273-7.273s3.257-7.273,7.273-7.273h1.546c4.017,0,7.273,3.257,7.273,7.273s-3.257,7.273-7.273,7.273h-1.546Z"
       fill-rule="evenodd"
       id="path1"
       style="fill:#ffcb71;fill-opacity:1" />
  </g>
</svg>
