<?xml version="1.0" encoding="UTF-8" standalone="no"?>
<svg
   height="500.2"
   preserveAspectRatio="xMidYMid meet"
   version="1.0"
   viewBox="19.3 -0.3 461.8 500.2"
   width="461.8"
   zoomAndPan="magnify"
   id="svg15"
   sodipodi:docname="s-1 (4).svg"
   inkscape:version="1.4 (e7c3feb1, 2024-10-09)"
   xmlns:inkscape="http://www.inkscape.org/namespaces/inkscape"
   xmlns:sodipodi="http://sodipodi.sourceforge.net/DTD/sodipodi-0.dtd"
   xmlns="http://www.w3.org/2000/svg"
   xmlns:svg="http://www.w3.org/2000/svg">
  <defs
     id="defs15" />
  <sodipodi:namedview
     id="namedview15"
     pagecolor="#ffffff"
     bordercolor="#000000"
     borderopacity="0.25"
     inkscape:showpageshadow="2"
     inkscape:pageopacity="0.0"
     inkscape:pagecheckerboard="0"
     inkscape:deskcolor="#d1d1d1"
     inkscape:zoom="1.1823205"
     inkscape:cx="309.98362"
     inkscape:cy="234.28503"
     inkscape:window-width="1680"
     inkscape:window-height="997"
     inkscape:window-x="0"
     inkscape:window-y="25"
     inkscape:window-maximized="1"
     inkscape:current-layer="svg15" />
  <g
     fill="#231f20"
     id="change1_1"
     style="fill:#ffcb71;fill-opacity:1">
    <path
       d="M480.9,128.9c0-0.2,0-0.3,0-0.5c0,0,0-0.1,0-0.1c0-0.2,0-0.3,0-0.5c0,0,0,0,0,0c0-0.2,0-0.3-0.1-0.5 c0,0,0,0,0,0c0-0.2-0.1-0.3-0.1-0.5c0,0,0-0.1,0-0.1c0-0.2-0.1-0.3-0.1-0.5c0,0,0,0,0-0.1c-0.1-0.3-0.2-0.6-0.3-0.9c0,0,0,0,0-0.1 c-0.1-0.1-0.1-0.3-0.2-0.4c0,0,0-0.1,0-0.1c-0.1-0.1-0.2-0.3-0.2-0.4c0,0,0,0,0,0c-0.1-0.1-0.2-0.3-0.3-0.4c0,0,0,0,0,0 c-0.1-0.1-0.2-0.3-0.3-0.4c0,0,0,0-0.1-0.1c-0.1-0.1-0.2-0.2-0.3-0.4c0,0,0,0,0,0c-0.2-0.2-0.5-0.5-0.7-0.7c0,0,0,0,0,0 c-0.1-0.1-0.2-0.2-0.4-0.3c0,0,0,0-0.1,0c-0.1-0.1-0.3-0.2-0.4-0.3c0,0,0,0,0,0c0,0,0,0,0,0c-0.1-0.1-0.3-0.2-0.4-0.3 c0,0,0,0-0.1,0c-0.1-0.1-0.2-0.1-0.3-0.2L254.2,1.1c-2.6-1.4-5.8-1.4-8.4,0L23.7,121.2c-0.1,0.1-0.2,0.1-0.3,0.2c0,0,0,0-0.1,0 c-0.1,0.1-0.3,0.2-0.4,0.3c0,0,0,0,0,0c0,0,0,0,0,0c-0.1,0.1-0.3,0.2-0.4,0.3c0,0,0,0-0.1,0c-0.1,0.1-0.3,0.2-0.4,0.3c0,0,0,0,0,0 c-0.2,0.2-0.5,0.5-0.7,0.7c0,0,0,0,0,0c-0.1,0.1-0.2,0.2-0.3,0.4c0,0,0,0-0.1,0.1c-0.1,0.1-0.2,0.3-0.3,0.4c0,0,0,0,0,0 c-0.1,0.1-0.2,0.3-0.3,0.4c0,0,0,0,0,0c-0.1,0.1-0.2,0.3-0.2,0.4c0,0,0,0.1,0,0.1c-0.1,0.1-0.1,0.3-0.2,0.4c0,0,0,0,0,0.1 c-0.1,0.3-0.2,0.6-0.3,0.9c0,0,0,0,0,0.1c0,0.2-0.1,0.3-0.1,0.5c0,0,0,0,0,0.1c0,0.2-0.1,0.3-0.1,0.5c0,0,0,0,0,0 c0,0.2-0.1,0.3-0.1,0.5c0,0,0,0,0,0c0,0.2,0,0.3,0,0.5c0,0,0,0.1,0,0.1c0,0.2,0,0.3,0,0.5c0,0,0,0,0,0v260.4c0,3.5,2,6.6,5.2,8 l222.1,101.8c0,0,0,0,0,0c0.1,0.1,0.3,0.1,0.4,0.2c0,0,0.1,0,0.1,0c0.1,0,0.2,0.1,0.4,0.1c0,0,0,0,0,0c0.1,0,0.3,0.1,0.4,0.1 c0,0,0.1,0,0.1,0c0.1,0,0.3,0.1,0.4,0.1c0,0,0,0,0,0c0.1,0,0.3,0.1,0.4,0.1c0,0,0.1,0,0.1,0c0.1,0,0.3,0,0.4,0.1c0,0,0,0,0,0 c0.1,0,0.3,0,0.4,0c0,0,0.1,0,0.1,0c0.1,0,0.3,0,0.4,0l0,0h0h0l0,0c0.1,0,0.3,0,0.4,0c0,0,0.1,0,0.1,0c0.1,0,0.3,0,0.4,0 c0,0,0,0,0,0c0.1,0,0.3,0,0.4-0.1c0,0,0.1,0,0.1,0c0.1,0,0.3,0,0.4-0.1c0,0,0,0,0,0c0.1,0,0.3-0.1,0.4-0.1c0,0,0.1,0,0.1,0 c0.1,0,0.3-0.1,0.4-0.1c0,0,0,0,0,0c0.1,0,0.2-0.1,0.4-0.1c0,0,0.1,0,0.1,0c0.1-0.1,0.3-0.1,0.4-0.2c0,0,0,0,0,0l222.1-101.8 c3.1-1.4,5.2-4.6,5.2-8L480.9,128.9C480.9,129,480.9,128.9,480.9,128.9z M250,18.9l201.1,108.8L301,186l-51,19.8L214.3,192 L48.9,127.6L250,18.9z M36.8,141.9l19.7,7.6l184.7,71.9v256L36.8,383.6V141.9z M463.2,383.6l-204.4,93.7v-256l204.4-79.5V383.6z"
       id="path1"
       style="fill:#ffcb71;fill-opacity:1" />
    <ellipse
       cx="122.6"
       cy="305.6"
       rx="17.7"
       ry="22.2"
       id="ellipse1"
       style="fill:#ffcb71;fill-opacity:1" />
    <ellipse
       cx="298"
       cy="253.2"
       rx="17.7"
       ry="22.2"
       id="ellipse2"
       style="fill:#ffcb71;fill-opacity:1" />
    <ellipse
       cx="298"
       cy="395.7"
       rx="17.7"
       ry="22.2"
       id="ellipse3"
       style="fill:#ffcb71;fill-opacity:1" />
    <ellipse
       cx="418.5"
       cy="341.4"
       rx="17.7"
       ry="22.2"
       id="ellipse4"
       style="fill:#ffcb71;fill-opacity:1" />
    <ellipse
       cx="415.8"
       cy="215.3"
       rx="17.7"
       ry="22.2"
       id="ellipse5"
       style="fill:#ffcb71;fill-opacity:1" />
    <ellipse
       cx="250"
       cy="156.8"
       rx="20.9"
       ry="16.8"
       id="ellipse6"
       style="fill:#ffcb71;fill-opacity:1" />
    <ellipse
       cx="250"
       cy="108.7"
       rx="20.9"
       ry="16.8"
       id="ellipse7"
       style="fill:#ffcb71;fill-opacity:1" />
    <ellipse
       cx="250"
       cy="60.6"
       rx="20.9"
       ry="16.8"
       id="ellipse8"
       style="fill:#ffcb71;fill-opacity:1" />
    <path
       d="M54.8,197.4c-2.4,0-4.4,2-4.4,4.4v44.6c0,2.4,2,4.4,4.4,4.4c2.4,0,4.4-2,4.4-4.4v-44.6 C59.2,199.4,57.3,197.4,54.8,197.4z"
       id="path8"
       style="fill:#ffcb71;fill-opacity:1" />
    <path
       d="M71.6,206.3c-2.4,0-4.4,2-4.4,4.4v28.7c0,2.4,2,4.4,4.4,4.4s4.4-2,4.4-4.4v-28.7C76,208.2,74,206.3,71.6,206.3 z"
       id="path9"
       style="fill:#ffcb71;fill-opacity:1" />
    <path
       d="M224.4,376.1c-2.4,0-4.4,2-4.4,4.4v44.6c0,2.4,2,4.4,4.4,4.4c2.4,0,4.4-2,4.4-4.4v-44.6 C228.8,378.1,226.9,376.1,224.4,376.1z"
       id="path10"
       style="fill:#ffcb71;fill-opacity:1" />
    <path
       d="M207.7,383.2c-2.4,0-4.4,2-4.4,4.4v28.7c0,2.4,2,4.4,4.4,4.4c2.4,0,4.4-2,4.4-4.4v-28.7 C212.1,385.2,210.1,383.2,207.7,383.2z"
       id="path11"
       style="fill:#ffcb71;fill-opacity:1" />
    <path
       d="M112.5,113.3c0.8,1.4,2.3,2.1,3.8,2.1c0.8,0,1.6-0.2,2.3-0.7l22.1-13.6c2.1-1.3,2.7-4,1.5-6.1 c-1.3-2.1-4-2.7-6.1-1.5L114,107.3C111.9,108.5,111.3,111.2,112.5,113.3z"
       id="path12"
       style="fill:#ffcb71;fill-opacity:1" />
    <path
       d="M113,132.8c0.8,1.4,2.3,2.2,3.8,2.2c0.8,0,1.5-0.2,2.3-0.6l37.7-22.4c2.1-1.3,2.8-4,1.5-6.1 c-1.3-2.1-4-2.8-6.1-1.5l-37.7,22.4C112.4,128,111.7,130.7,113,132.8z"
       id="path13"
       style="fill:#ffcb71;fill-opacity:1" />
    <path
       d="M387,287.4c0.6,0.3,1.2,0.4,1.8,0.4c1.7,0,3.3-1,4-2.6l12-27.1c1-2.2,0-4.8-2.3-5.8c-2.2-1-4.8,0-5.8,2.3 l-12,27.1C383.7,283.8,384.8,286.4,387,287.4z"
       id="path14"
       style="fill:#ffcb71;fill-opacity:1" />
    <path
       d="M402.1,301l20.4-42.9c1-2.2,0.1-4.8-2.1-5.9c-2.2-1-4.8-0.1-5.9,2.1l-20.4,42.9c-1,2.2-0.1,4.8,2.1,5.9 c0.6,0.3,1.3,0.4,1.9,0.4C399.7,303.5,401.3,302.6,402.1,301z"
       id="path15"
       style="fill:#ffcb71;fill-opacity:1" />
  </g>
</svg>
