<?xml version="1.0" encoding="UTF-8" standalone="no"?>
<svg
   height="460.7"
   preserveAspectRatio="xMidYMid meet"
   version="1.0"
   viewBox="0.0 0.0 387.8 460.7"
   width="387.8"
   zoomAndPan="magnify"
   id="svg23"
   sodipodi:docname="s-1 (7).svg"
   inkscape:version="1.4 (e7c3feb1, 2024-10-09)"
   xmlns:inkscape="http://www.inkscape.org/namespaces/inkscape"
   xmlns:sodipodi="http://sodipodi.sourceforge.net/DTD/sodipodi-0.dtd"
   xmlns="http://www.w3.org/2000/svg"
   xmlns:svg="http://www.w3.org/2000/svg">
  <sodipodi:namedview
     id="namedview23"
     pagecolor="#ffffff"
     bordercolor="#000000"
     borderopacity="0.25"
     inkscape:showpageshadow="2"
     inkscape:pageopacity="0.0"
     inkscape:pagecheckerboard="0"
     inkscape:deskcolor="#d1d1d1"
     inkscape:zoom="1.1700623"
     inkscape:cx="211.52721"
     inkscape:cy="220.50109"
     inkscape:window-width="1680"
     inkscape:window-height="997"
     inkscape:window-x="0"
     inkscape:window-y="25"
     inkscape:window-maximized="0"
     inkscape:current-layer="svg23" />
  <defs
     id="defs1">
    <clipPath
       id="a">
      <path
         d="M 0 0 L 387.789062 0 L 387.789062 460.699219 L 0 460.699219 Z M 0 0"
         id="path1" />
    </clipPath>
  </defs>
  <g
     id="g23"
     style="mix-blend-mode:normal;fill:#ffcb71;fill-opacity:1">
    <g
       clip-path="url(#a)"
       id="change1_22"
       style="fill:#ffcb71;fill-opacity:1">
      <path
         d="m 216.84766,199.11719 c 0.99609,-0.48828 1.9375,-0.9961 1.46484,-1.84375 -0.51172,-0.91797 -1.68359,-0.9336 -2.76172,-0.75782 -0.71875,1.3125 0.30078,1.875 1.29688,2.60157 z m -81.46485,87.51953 c -1.51562,-0.16406 -2.65234,0.004 -3.61719,0.88281 0.47266,0.96875 0.95313,1.83594 2.36329,1.52344 1.36718,-0.30469 1.36328,-1.25391 1.2539,-2.40625 z m 49.875,-29.4375 c 0.34375,-0.36719 1.05078,-0.87891 1.33594,-1.51563 0.26953,-0.60937 -0.86719,-1.33203 -1.85938,-1.32422 -1,0.004 -1.63281,0.51172 -1.58984,1.27344 0.0469,0.83203 0.87109,1.61719 2.11328,1.56641 z m 30.57031,46.20312 c 0.90235,-0.008 1.73047,-0.11718 1.91016,-1.00781 0.14844,-0.74609 -0.82422,-1.44141 -2.00781,-1.49219 -1.07813,-0.0508 -1.97266,0.53125 -1.88672,1.27344 0.12109,1.01172 1.08594,1.10547 1.98437,1.22656 z m 0.54297,-135.74609 c -0.96484,0.76562 -1.83593,1.49219 -1.17578,2.30469 0.48438,0.59765 1.58203,0.99609 2.47656,1.1289 0.47657,0.0703 1.33985,-0.52343 1.59375,-0.98828 0.1875,-0.33203 -0.18359,-1.08984 -0.58593,-1.39844 -0.58594,-0.44921 -1.42188,-0.66406 -2.3086,-1.04687 z m 39.78125,42.89062 c 1.39453,-0.59765 2.65625,-1.0039 2.51953,-2.37109 -0.0742,-0.74609 -1.34765,-1.78125 -2.21875,-1.85937 -1.1914,-0.10938 -1.60156,0.65234 -1.98437,1.36718 -0.78125,1.47657 0.78125,1.95313 1.68359,2.86328 z m -81.94531,85.5 c 0.0156,-1.13671 -0.50391,-1.61718 -1.75391,-1.63671 -1.54687,-0.0234 -2.90625,0.70703 -2.91796,1.57031 -0.0195,1.07031 1.57421,2.5 2.73828,2.46484 1.15625,-0.0351 1.91797,-0.98047 1.93359,-2.39844 z m 14.58594,-79.03515 c -1.375,0.0234 -1.96875,0.54297 -1.96875,1.71875 -0.004,1.27344 1.00781,2.14453 2.51172,2.16797 1.46093,0.0195 2.89062,-0.95313 2.8125,-1.91797 -0.0898,-1.16797 -1.51172,-2.00391 -3.35547,-1.96875 z m 79.97265,-107.05078 c 0.0469,-1.48047 -0.92187,-2.4336 -2.46093,-2.41406 -1.36719,0.0156 -2.55078,1.11718 -2.58985,2.42187 -0.0508,1.57422 0.77344,2.42578 2.36719,2.44141 1.78516,0.0195 2.625,-0.75 2.68359,-2.44922 z m -33.625,43.86328 c 0,-1.63672 -0.97656,-2.87891 -2.38671,-3.17188 -2.29688,-0.47265 -3.01563,1.14453 -4.07422,2.25782 -0.89453,0.9375 -0.95703,2.15625 -0.22657,2.9375 0.20313,0.21484 0.48438,0.39453 0.76563,0.54687 1.23828,0.66797 2.50781,0.70703 3.83203,0.14063 1.44141,-0.61719 2.04297,-1.625 2.08984,-2.71094 z m -59.75781,178.10547 c 0.28906,0.72265 0.46094,1.5039 0.89453,2.16015 0.67578,1.02735 1.75,1.21875 3.01563,0.69532 1.92578,-0.79297 3.33984,-2.97657 3.08594,-4.76563 -0.23829,-1.70703 -2.70313,-2.80859 -4.3711,-1.84766 -1.48828,0.85547 -2.6914,1.97657 -2.625,3.75782 z m 72.20313,-158.78125 c -2.38282,1.91015 -4.32032,3.46484 -6.07032,4.86718 -1.84375,-0.5664 -3.38671,-1.04296 -5.33984,-1.64843 0.79297,1.6289 1.42188,2.91797 2.0625,4.24218 -1.80078,1.44532 -3.53906,2.83985 -5.56641,4.46875 2.48438,0 4.42969,0.0352 6.36719,-0.0117 1.5,-0.0352 2.26172,0.52734 2.76172,1.71484 0.55859,1.33203 1.42188,2.57031 2.35156,4.20703 0.26953,-1.11719 0.50391,-1.73828 0.55469,-2.37109 0.14453,-1.72657 1.04297,-2.75782 3.20703,-2.97657 1.03516,-0.10546 2.02735,-0.51171 3.28906,-0.85156 -1.16796,-0.92578 -1.97265,-1.82031 -3.03125,-2.34765 -1.80468,-0.89844 -2.01171,-2.08204 -1.62109,-3.64063 0.42578,-1.71094 0.64453,-3.45703 1.03516,-5.65234 z m -72.85547,33.625 c 2.92969,-1.51563 5.28515,-3.25 7.33984,-5.25 0.98828,-0.96094 1.88281,-2.05078 2.51172,-3.20313 1.50781,-2.76172 0.17578,-4.78906 -3.39062,-5.30469 -2.625,-0.38281 -5.23829,-0.20312 -7.82422,0.30079 -2.08985,0.40625 -4.26172,0.62109 -6.09375,1.57812 2.52734,4.01953 4.96484,7.91406 7.45703,11.87891 z m 15.13672,74.11718 c 0.0898,0.15625 0.17578,0.3125 0.26172,0.47266 0.93359,0 1.86328,-0.0195 2.79296,0.004 2.96485,0.0703 5.96485,-0.0547 8.88672,0.28125 4.64844,0.53906 3.88282,0.40625 5,3.71093 0.23047,0.6875 0.29688,1.40625 0.46485,2.10547 0.32812,1.35157 0.66797,2.70313 1.10937,4.48047 0.75781,-1.15625 1.1875,-1.92578 1.73438,-2.6289 1.44531,-1.83204 3.22265,-3.47657 4.07031,-5.63672 0.35937,-0.91797 1.32812,-1.13282 2.50781,-0.96875 2.48828,0.35547 5,0.59375 8.11328,0.95312 -2.03906,-2.0625 -3.6914,-3.7539 -5.36718,-5.42578 -1.19922,-1.19531 -1.3086,-1.52734 -0.46485,-2.86328 0.71094,-1.13281 1.57031,-2.19922 2.28516,-3.33594 1.18359,-1.88672 2.32812,-3.79687 3.43359,-5.71875 0.22656,-0.39062 0.21485,-0.88281 0.34766,-1.48047 -4.15235,1.96094 -8.08203,3.76953 -11.94922,5.67188 -1.04297,0.51172 -1.84766,0.58594 -2.73047,-0.11328 -0.49219,-0.39063 -1.03125,-0.74219 -1.52344,-1.12891 -1.46875,-1.16016 -2.92578,-2.32812 -4.78125,-3.80469 0.17578,1.36719 0.32813,2.27344 0.40235,3.1836 0.10937,1.28125 0.24218,2.5664 0.1914,3.84375 -0.0195,0.49609 -0.36718,1.14453 -0.82031,1.4414 -1.53516,0.9961 -3.1875,1.86719 -4.79297,2.78516 -0.89844,0.51172 -1.79297,1.03906 -2.70703,1.53516 -0.40625,0.21875 -0.85937,0.38671 -1.29687,0.5625 -1.72266,0.69531 -3.44532,1.38281 -5.16797,2.07421 z M 50.964844,248.92187 c -7.757813,2.57813 -14.757813,6.25 -20.410156,11.56641 -1.394532,1.3125 -2.617188,2.82813 -3.515626,4.41406 -1.5,2.64063 -0.234374,4.37891 3.277344,4.44532 2.421875,0.043 4.921875,-0.17579 7.28125,-0.66016 8.546875,-1.75 16.332032,-5.07813 24.042969,-8.53516 0.125,-0.0547 0.171875,-0.23047 0.222656,-0.30468 -3.578125,-3.58985 -7.148437,-7.16797 -10.898437,-10.92579 z m 219.453126,35.59766 c -2.5625,-1.42578 -5.09766,-2.92187 -7.75781,-4.24219 -0.56641,-0.28125 -1.67579,-0.0898 -2.375,0.17578 -1.69532,0.64844 -3.375,1.375 -4.91407,2.25 -2.52343,1.42969 -4.83203,3.14063 -7.41797,4.47657 -3.58593,1.85156 -6.60937,4.23828 -9.59375,6.66797 -7.58203,6.17187 -14.35156,12.96484 -20.99218,19.84765 -11.20703,11.61719 -21.05078,24.03516 -30.23438,36.83203 -5.85156,8.15235 -10.99219,16.59766 -14.61719,25.65625 -0.46484,1.16797 -0.87109,2.35938 -1.30468,3.53907 0.15234,0.0547 0.30468,0.10546 0.45703,0.16015 2.30078,-3.49219 4.59375,-6.98437 6.90234,-10.47265 1.69141,-2.5586 3.30469,-5.15235 5.125,-7.64454 1.9961,-2.73828 4.19141,-5.375 6.29297,-8.05859 1.02344,-1.30469 1.9375,-2.67969 3.07422,-3.91406 1.5,-1.625 3.33984,-3.04297 4.73828,-4.72266 4.81641,-5.79687 9.51563,-11.66406 14.25,-17.51172 12.98828,-16.04297 29.00391,-29.63672 47.28516,-41.39062 0.60156,-0.39063 1.23828,-0.76953 1.92187,-1.01953 0.29297,-0.10938 0.9961,0.0312 1.09766,0.21484 0.17187,0.31641 0.18359,0.875 -0.0469,1.12109 -0.46484,0.49219 -1.1289,0.85547 -1.73047,1.2461 -12.24218,7.98828 -23.6875,16.6914 -33.73828,26.65625 -8.26172,8.1914 -15.38672,17.07422 -22.36328,26.04687 -0.29297,0.37891 -0.52734,0.79297 -0.95312,1.44532 0.50781,-0.21485 0.67968,-0.24219 0.76562,-0.32813 1.67578,-1.71094 3.35547,-3.41406 5.01172,-5.14062 12.33594,-12.84766 25.01172,-25.44141 39.35547,-36.76563 6.6875,-5.27734 13.20703,-10.73437 21.3125,-14.53516 0.125,-0.0586 0.17969,-0.22656 0.44922,-0.58984 z m 23.92578,-159.59765 c -0.83984,-0.0508 -1.23047,-0.10157 -1.62109,-0.0898 -0.75782,0.0234 -1.52344,0.0547 -2.27735,0.13281 -12.03906,1.24219 -20.48047,6.78907 -25.85156,15.71485 -6.58594,10.9375 -3.34375,23.79687 7.86719,31.60937 6.45703,4.50391 13.85937,6.52735 22.26172,5.21485 6.66406,-1.04297 12.13281,-3.89844 16.63281,-8.11719 0.34765,-0.32422 0.59765,-0.71875 0.92187,-1.11719 -0.29687,-0.0664 -0.38281,-0.10547 -0.45703,-0.0977 -0.5,0.0625 -1,0.14063 -1.5,0.21094 -8.57812,1.1875 -16.35547,-0.29687 -23.10937,-5.01953 -9.92188,-6.93359 -12.17969,-18.10156 -5.61328,-27.4375 2.67968,-3.8125 6.30468,-6.87891 10.48828,-9.51562 0.65234,-0.41407 1.28515,-0.84766 2.25781,-1.48828 z M 229.625,206.44922 c -9.78906,-0.84375 -18.83594,3.3125 -23.51172,10.23437 -4.73047,7 -3.46875,16.29688 0.82422,20.69532 0.0977,-0.0898 0.25,-0.17188 0.28125,-0.27735 0.16797,-0.55078 0.28906,-1.11719 0.45703,-1.66797 1.01563,-3.41406 2.43359,-6.69531 4.85547,-9.58984 2.47656,-2.96094 5.69141,-5.28125 9.28125,-7.24219 0.61719,-0.33594 1.35156,-0.5625 1.73437,0.10156 0.1836,0.32032 -0.0625,0.96875 -0.36718,1.29688 -0.40235,0.42969 -1.05078,0.70703 -1.60938,1.03125 -6.80469,3.94922 -10.66797,9.42969 -11.97656,16.25391 -0.16016,0.82031 -0.51172,1.61328 -0.78125,2.44531 0.0664,0.0977 0.12891,0.23047 0.22656,0.34375 0.15235,0.17187 0.31641,0.33594 0.4961,0.48828 4.99218,4.28906 10.92968,6.51172 18.17968,6.46875 2.53125,-0.0156 3.57032,-0.77344 4.85938,-2.47656 2.30078,-3.05078 5.14844,-5.82813 7.90625,-8.61719 1.25,-1.26563 3.13672,-1.33203 4.95312,-1.03125 0.36719,0.0586 0.77735,0.51562 0.89063,0.85547 0.0586,0.1875 -0.40235,0.61328 -0.73047,0.74219 -0.44141,0.17187 -0.98438,0.14843 -1.48047,0.22656 -0.57422,0.0937 -1.30859,0.043 -1.6875,0.32812 -3.35156,2.51172 -5.93359,5.53125 -8.40234,8.97657 12.61328,-2.40625 20.18359,-14.86329 16.67187,-23.75782 -6.0039,0.0859 -10.54297,2.19532 -13.28906,6.81641 -0.49219,0.83203 -0.95703,1.67578 -1.53516,2.46875 -0.66406,0.90625 -1.41015,1.77344 -2.17187,2.625 -0.44141,0.49219 -1.17578,0.84766 -1.70703,0.32812 -0.29297,-0.28906 -0.20313,-1.08984 0.0625,-1.49609 1.17187,-1.81641 2.51953,-3.54297 3.71484,-5.34766 2.70313,-4.09765 6.73828,-6.51171 12.27734,-7.10546 0.64844,-0.0703 1.28125,-0.22657 1.91016,-0.34375 -0.99609,-5.45704 -9.23437,-12.3711 -16.58594,-13.26954 -1.42578,0.60157 -2.48437,1.1875 -3.64453,1.51172 -4.78515,1.34375 -8.71875,3.82422 -12.28515,6.6836 -1.5586,1.24609 -2.57422,2.97656 -3.84766,4.47656 -0.39844,0.46875 -0.85547,0.98828 -1.65234,0.59766 -0.75391,-0.3711 -0.67969,-0.96094 -0.27344,-1.49219 1.14453,-1.49219 2.09375,-3.15625 3.54687,-4.40235 3.94141,-3.38671 8.50391,-6.08203 14.41016,-7.8789 z m -114.12891,73.24609 c 0.95704,0 1.60938,0.0703 2.23438,-0.0117 4.26562,-0.55468 8.63281,-0.80859 12.76562,-1.77343 22.88672,-5.33204 39.20313,-16.73047 46.41407,-36.33985 2.10156,-5.71094 3.45312,-11.5 2.79296,-17.51172 -0.2539,-2.3125 -0.69531,-4.59765 -1.91015,-6.95312 -1.05078,0.71484 -1.87891,1.3164 -2.7461,1.86719 -5.95312,3.78906 -11.71093,7.83203 -17.91796,11.30078 -20.35547,11.38281 -41.10157,22.24218 -62.562504,32.10547 -4.53125,2.08203 -9.035156,4.20703 -13.882812,6.46875 8.894531,7.3164 19.582036,10.19531 30.988286,10.52734 0.53125,-0.65625 1.44531,-0.85156 2.08984,-1.3125 1.74219,-1.23828 3.47656,-2.50781 5.01172,-3.92188 1.98828,-1.83203 4.29297,-3.46875 5.53125,-5.82812 0.14844,-0.28906 0.79687,-0.39063 1.21094,-0.57813 0.24218,0.40625 0.79687,0.90625 0.67187,1.19532 -0.39844,0.92187 -0.92187,1.84765 -1.63281,2.62109 -1.13672,1.23828 -2.4336,2.38281 -3.71485,3.52344 -1.66406,1.48828 -3.38671,2.93359 -5.34375,4.62109 z m -37.050778,55.90235 c 1.164063,0.51953 1.890626,0.85937 2.632813,1.17187 7.144531,3.01172 14.011719,6.41797 20.539065,10.30078 11.05078,6.57031 21.28515,13.97266 31.20312,21.69922 7.20703,5.60938 13.3711,11.96484 18.60156,18.96484 0.40235,0.53907 0.82032,1.09766 1.07032,1.69141 0.10156,0.24219 -0.14453,0.74219 -0.41407,0.89063 -0.26953,0.14843 -0.91796,0.14062 -1.13281,-0.0312 -0.54297,-0.4336 -0.97265,-0.98047 -1.3789,-1.51954 -5.3086,-7.03906 -11.45313,-13.52343 -18.86719,-19.05078 -7.6875,-5.73047 -15.49609,-11.35937 -23.49219,-16.77734 -4.61719,-3.12891 -9.691405,-5.78125 -14.609374,-8.58203 -1.777344,-1.01172 -3.757812,-1.75781 -5.992187,-1.22656 -1.527344,0.35937 -3,0.24609 -4.519531,0.0351 -1.25,-0.17578 -2.53125,-0.28906 -3.796876,-0.26953 -3.5625,0.0508 -7.132812,0.0781 -10.679687,0.32031 -2.660156,0.1836 -5.386719,0.34766 -8.074219,1.5 0.617188,0.21094 0.988282,0.38282 1.386719,0.47266 10.734375,2.35937 20.464844,6.55078 29.5,11.85547 7.238281,4.24609 14.273435,8.74609 21.257815,13.29297 15.875,10.32422 31.37109,21.01562 44.28515,34.08203 0.24219,0.24609 0.61328,0.39844 1.02344,0.65234 2.55859,-4.6875 5.07031,-9.21875 7.47656,-13.78906 0.30469,-0.58203 0.17969,-1.40234 0.0195,-2.07031 -1.13671,-4.8125 -1.35156,-9.64453 -0.71484,-14.51563 0.53906,-4.12109 1.125,-8.24609 1.44922,-12.3789 0.28516,-3.67969 0.48437,-7.30079 -1.00391,-10.98438 -3.32812,-8.23047 -9.80859,-13.35156 -19.73828,-15.44531 -6.5,-1.3711 -13.10547,-1.29688 -19.73828,-1.03906 -9.75,0.3789 -19.5,0.85546 -29.265624,0.375 -1.808594,-0.0899 -3.628906,-0.0156 -5.476562,-0.0156 0.07422,0.10156 0.101562,0.1875 0.164062,0.21484 0.308594,0.1211 0.621094,0.23438 0.933594,0.34375 16.625,5.78907 31.34766,14.02344 43.56641,25.125 7.26171,6.59375 13.71875,13.81641 20.53515,20.75391 0.10938,0.10938 0.22266,0.21875 0.3125,0.33984 0.37891,0.51172 0.70313,1.13282 -0.0469,1.48829 -0.35547,0.17187 -1.1211,-0.0391 -1.55469,-0.27344 -0.47656,-0.25781 -0.80078,-0.72656 -1.17188,-1.11719 -3.67187,-3.84375 -7.41796,-7.64062 -10.99609,-11.54687 -9.87891,-10.78516 -21.90234,-19.4961 -35.78125,-26.42579 -6.066405,-3.02734 -12.226561,-5.90625 -19.093749,-7.48437 -2.582031,-0.59375 -5.1875,-1.14844 -8.417969,-1.02734 z M 50.113281,246.875 c -1.246093,-2.52734 -2.496093,-5.05859 -3.746093,-7.59375 -0.453126,0.10156 -0.710938,0.12109 -0.929688,0.21094 -9.160156,3.76953 -18.125,7.82031 -26.359375,12.92968 -4.457031,2.76954 -8.59375,5.83204 -11.921875,9.59766 -1.988281,2.25391 -3.582031,4.67969 -4.421875,7.42578 -1.59375,5.21094 0.578125,9.73438 6.078125,12.48047 1.085938,0.54688 2.25,1.01563 3.4375,1.375 4.882812,1.46875 9.9375,1.74219 15.058594,1.35547 8.542968,-0.64844 16.609375,-2.77344 24.460937,-5.57422 9.699219,-3.46094 18.863281,-7.8125 28.101563,-12.03906 19.539062,-8.9375 38.828126,-18.23047 57.601566,-28.28125 12.39843,-6.63672 24.8164,-13.21875 36.09765,-21.19922 7.80469,-5.51953 15.60547,-11.03516 22.40625,-17.46484 2.66016,-2.51954 5.05078,-5.20313 6.75,-8.28125 1.05078,-1.91016 1.67578,-3.89063 1.45313,-6.01954 -0.16407,-1.5664 -0.86328,-2.94531 -2.26953,-3.95703 -2.57422,-1.85547 -5.57422,-2.88672 -8.9961,-3.04297 -11.94922,-0.55468 -22.55469,2.50391 -32.09765,8.44141 -0.24219,0.15234 -0.38672,0.41797 -0.61719,0.67969 1.87109,1.76172 3.66406,3.44922 5.48437,5.16406 1,-0.24609 1.89063,-0.46875 2.78125,-0.68359 3.42969,-0.82422 6.89453,-1.64453 10.48828,-1.46485 1.82032,0.0937 3.70704,0.46094 5.375,1.06641 2.34766,0.85156 3.3711,2.64062 3.01563,4.74609 -0.21094,1.23438 -0.78516,2.48828 -1.50391,3.59375 -1.74609,2.6836 -4.375,4.77735 -7.3125,6.47657 -4.39453,2.54687 -8.86718,5.03515 -13.52734,7.21093 -17.44141,8.13672 -35.02344,16.05469 -52.44922,24.21094 -14.757811,6.90625 -29.378905,14.01953 -44.046874,21.05859 -1.085937,0.51954 -2.0625,1.19922 -3.097656,1.79688 -0.273438,0.16016 -0.5625,0.30469 -0.867188,0.41406 -1.554687,0.53516 -3.167968,0.96875 -4.664062,1.60156 -6.222656,2.625 -12.476562,5.1836 -19.175781,6.86329 -3.671875,0.92187 -7.378907,1.67968 -11.261719,1.21484 -4.417969,-0.53516 -6.375,-3.17969 -4.640625,-6.64453 0.84375,-1.6836 2.097656,-3.27344 3.460937,-4.70703 3.15625,-3.32422 7.078126,-5.97657 11.386719,-8.16016 3.332031,-1.69141 6.828125,-3.14453 10.46875,-4.80078 z m 71.128909,-15.05859 c -1.50781,-0.77735 -1.35547,-1.57813 -0.4336,-2.53907 1.22657,-1.27343 2.24219,-2.69531 3.4961,-3.94922 3.28515,-3.27343 5.57031,-6.97656 7.04687,-11.0625 0.26953,-0.75 0.32813,-2.01953 1.74219,-1.60546 1.32031,0.38671 0.61719,1.46875 0.34375,2.24609 -1.49219,4.23047 -3.86719,8.05859 -7.23047,11.46094 -1.42578,1.44531 -2.66015,3.02734 -3.98437,4.54297 0.92968,-0.0156 1.59765,-0.26954 2.23828,-0.5625 7.30078,-3.35157 14.59375,-6.71094 21.89843,-10.05469 7.75,-3.54688 15.51954,-7.07031 23.26172,-10.62891 1.09375,-0.5039 2.09375,-1.14844 3.15235,-1.73828 -3.82422,-6.26172 -7.04297,-12.58984 -12.96094,-17.53516 -5.86328,-4.90234 -12.55859,-8.71484 -20.51563,-11.7539 0.34766,1.13281 0.625,1.79687 0.75,2.47656 0.3086,1.69141 0.92188,3.41797 0.73829,5.07422 -0.51172,4.61719 -1.35938,9.20703 -2.10157,13.80469 -0.082,0.48828 -0.23437,1.01562 -0.55468,1.40625 -0.23047,0.28906 -0.8711,0.59375 -1.17969,0.50781 -0.34375,-0.0937 -0.57031,-0.60547 -0.75,-0.96875 -0.082,-0.16797 0.0664,-0.41406 0.10937,-0.625 0.63672,-3.24219 1.3711,-6.47266 1.87891,-9.72656 0.57031,-3.62891 0.75391,-7.26172 -0.97266,-10.77344 -0.79687,-1.61328 -1.97656,-2.79297 -4.04687,-3.27344 -3.01953,-0.70312 -6.02344,-1.46094 -9.04688,-2.16406 -0.40234,-0.0937 -0.86328,-0.0117 -1.5039,-0.0117 1.98828,2.67188 3.29297,5.37109 4.14453,8.22656 1.32031,4.41016 -0.0977,8.82422 -0.0234,13.23438 0.004,0.34375 -0.60547,0.93359 -1.01172,0.99219 -0.89453,0.125 -1.07422,-0.53907 -1.05468,-1.14063 0.0664,-2 0.0117,-4.01172 0.28515,-5.99219 0.75391,-5.47265 -1.08984,-10.30078 -4.71484,-14.76562 -0.84766,-1.04688 -1.95703,-1.52735 -3.40625,-1.57422 -2.46094,-0.0742 -4.91797,-0.18359 -7.375,-0.22266 -1.3125,-0.0195 -2.6211,0.082 -4.08985,0.13282 0.22657,0.55078 0.3125,0.82421 0.44532,1.08203 3.9375,7.39843 5.78125,15.1875 6.33984,23.25781 0.67578,9.69922 -1.91016,18.72266 -7.37109,27.21875 -0.32032,0.5 -0.67188,1.00781 -1.13672,1.40625 -0.23047,0.19531 -0.91797,0.30469 -1.11328,0.16797 -0.3125,-0.22266 -0.60938,-0.73047 -0.51953,-1.03125 0.18359,-0.60938 0.61718,-1.16797 0.97656,-1.73438 4.74609,-7.45312 7.23047,-15.35937 7.0039,-23.86328 -0.11328,-4.44922 -0.67968,-8.84375 -1.77734,-13.18359 -1.14844,-4.54297 -2.85156,-8.9375 -5.52734,-13.3086 -3.980472,0.69922 -7.921879,1.39454 -12.429691,2.1875 1.308593,0.92188 2.207031,1.45313 2.957031,2.10938 1.226562,1.07422 2.59375,2.10937 3.484375,3.36719 4.949215,6.99609 6.250005,14.40625 3.1875,22.23437 -0.183594,0.47266 -0.339844,0.97656 -0.664063,1.375 -0.195312,0.23828 -0.804687,0.4961 -1.019531,0.40235 -0.371093,-0.16407 -0.835937,-0.60938 -0.804687,-0.90235 0.08984,-0.76953 0.410156,-1.52344 0.660156,-2.28125 1.292969,-3.91406 1.773438,-7.8789 0.578125,-11.85937 -1.484375,-4.9375 -3.792969,-9.47266 -9.09375,-12.48828 -1.246094,-0.70704 -2.308594,-0.94922 -3.753906,-0.46485 -8.941407,3.00391 -17.050781,7.07031 -23.605469,13.09375 -8.28125,7.61719 -12.78125,16.75781 -14.898438,26.8125 -1.578124,7.51172 -1.0625,14.92188 1.546876,22.25 2.472656,6.96485 7.296874,12.65625 13.101562,17.86328 0.753906,0.67578 1.355469,1.46875 2.089844,2.27735 9.816406,-4.57032 19.136718,-8.91407 28.71875,-13.375 -1.496094,-1.06641 -0.699219,-1.83594 -0.195313,-2.66797 1.460938,-2.41016 2.882813,-4.83594 4.308594,-7.26172 0.222656,-0.38281 0.296875,-0.84766 0.597656,-1.17188 0.21875,-0.23437 0.746094,-0.44921 1.050781,-0.38281 0.304688,0.0625 0.65625,0.46094 0.71875,0.75391 0.08984,0.39844 0.03516,0.875 -0.148437,1.25 -0.710937,1.45312 -1.457031,2.89062 -2.261719,4.30078 -0.703125,1.23828 -1.503906,2.4375 -2.261718,3.65234 0.132812,0.0937 0.265624,0.1836 0.402343,0.27735 8.632809,-4.20313 17.269529,-8.41016 26.285159,-12.80078 z m 261.23047,137.35546 c -0.65235,-0.96093 -1.11719,-1.8125 -1.76172,-2.55078 -1.80469,-2.07422 -3.56641,-4.1875 -5.55469,-6.13281 -16.08594,-15.74609 -33.30078,-30.52344 -52.55078,-43.57031 -9.65235,-6.53906 -19.125,-13.27344 -28.8086,-19.78125 -5.46875,-3.67578 -11.60156,-6.44141 -18.25,-8.37891 -1.25,-0.36328 -2.27734,-0.38672 -3.34375,0.21875 -2.53125,1.4375 -5.21875,2.71485 -7.55468,4.34375 -11.53516,8.03906 -22.23047,16.83594 -31.98047,26.38672 -10.95313,10.73047 -21.54688,21.72266 -32.20313,32.66797 -4.08984,4.19531 -8.05859,8.48828 -11.84765,12.88281 -10.17578,11.79688 -18.17969,24.62891 -25.06641,37.97266 -0.53906,1.03906 -1.05469,2.08594 -1.68359,3.33203 42.67187,16.53125 85.17968,33 127.78906,49.50781 C 320.70703,427 351.57031,398.10156 382.47266,369.17187 Z M 79.066406,338.625 c -1.792968,-1.45703 -3.890625,-2.16797 -5.953125,-2.9375 -0.230469,-0.0859 -0.488281,-0.11719 -0.734375,-0.17188 -0.859375,-0.1914 -1.734375,-0.45312 -1.550781,-1.3789 0.160156,-0.79688 1.03125,-0.77735 1.8125,-0.85938 1.84375,-0.1914 3.675781,-0.51953 5.523437,-0.66015 1.761719,-0.13282 3.546876,-0.19141 5.3125,-0.11328 2.023438,0.0937 4.035157,0.4414 6.058594,0.55859 10.433594,0.60547 20.867184,0.44922 31.300784,0.0508 6.35937,-0.23828 12.71484,-0.52344 19.0664,0.14063 8.29297,0.86718 15.5586,3.41015 21.05078,8.9414 0.19141,0.19531 0.48047,0.32422 1.0625,0.33594 -0.35156,-0.85156 -0.67968,-1.71094 -1.0625,-2.55078 -2.08984,-4.6211 -3.9414,-9.29297 -4.40625,-14.26172 -0.15234,-1.64063 -0.21093,-3.28516 -0.32421,-4.92578 -0.15625,-2.28125 -0.22657,-4.57422 -0.5,-6.84766 -0.86329,-7.17969 -5.48047,-11.12109 -14.00782,-11.89844 -3.79297,-0.34765 -7.60547,-0.55078 -11.41406,-0.7539 -7.02344,-0.37891 -13.52734,-2.19531 -19.34375,-5.44141 -6.22265,-3.46875 -12.312499,-7.12109 -18.230468,-10.94922 C 90,283.14062 87.894531,280.70703 85.375,278.69531 c -2.386719,-1.89844 -3.777344,-4.35547 -5.585938,-6.58203 -0.511718,-0.63281 -1.152343,-1.19141 -1.875,-1.92969 -1.082031,0.46485 -2.054687,0.86719 -3.003906,1.29688 -7.988281,3.63672 -16.003906,7.22265 -24.441406,10.08984 -6.871094,2.33594 -13.925781,4.14063 -21.308594,4.82031 -5.6875,0.51954 -11.367187,0.48047 -16.875,-1.08593 -1.199218,-0.33985 -2.394531,-0.73828 -3.519531,-1.22657 -7.445313,-3.25 -10.335937,-9.04687 -7.945313,-15.84375 1.078126,-3.0664 2.996094,-5.75 5.34375,-8.22656 3.851563,-4.05859 8.539063,-7.34765 13.5625,-10.3164 7.246094,-4.27735 14.996094,-7.82422 22.894532,-11.15625 0.980468,-0.41407 1.96875,-0.81641 3.105468,-1.28907 -0.34375,-1.72656 -0.746093,-3.38672 -1.003906,-5.0664 -1.71875,-11.10938 0.761719,-21.6211 6.421875,-31.67188 7.140625,-12.67969 19.234375,-20.66406 34.496094,-25.49609 21.386715,-6.76953 41.855465,-4.39844 61.449215,4.88672 3.89453,1.84765 7.46485,4.17968 11.29297,6.34765 12,-7.26562 25.19141,-11.21093 40.42188,-8.59375 -0.49219,-2.3789 -1.03907,-4.80859 -1.49219,-7.25 -0.51563,-2.78906 -0.30859,-5.57031 0.44141,-8.30859 1.29687,-4.74609 4.51562,-8.39844 9.16796,-11.22656 4.53125,-2.75391 9.69922,-4.36719 14.8711,-5.98828 3.25781,-1.02344 6.51172,-2.0625 9.71875,-3.1875 9.21484,-3.22657 13.95312,-9.17969 14.9375,-17.44922 0.36328,-3.05469 0.86719,-6.10156 1.47265,-9.12891 1.16407,-5.78515 4.4375,-10.625 9.71875,-14.4375 2.37891,-1.718749 4.95704,-3.246092 7.4336,-4.871092 2.07422,-1.359376 4.21484,-2.660157 6.1875,-4.117188 4.74609,-3.511719 6.35547,-7.875 4.29297,-12.957031 -1.17578,-2.902344 -2.71485,-5.695313 -4.10547,-8.53125 -1.38672,-2.839844 -2.94141,-5.628907 -4.16016,-8.519531 -2.89453,-6.84375 -2.92969,-13.789063 -0.0234,-20.601563 1.91797,-4.492187 4.26954,-8.867187 6.6875,-13.191406 3.82813,-6.851563 7.95313,-13.589844 10.86719,-20.777344 0.73828,-1.824219 1.29688,-3.699219 1.98828,-5.535156 0.26563,-0.707031 0.38672,-1.816407 1.64453,-1.5234378 1.22657,0.2812498 0.75,1.2617188 0.52735,2.0156248 -1.60938,5.425782 -4.125,10.582032 -6.67578,15.726563 -2.96485,5.976562 -5.07813,12.113281 -5.39844,18.636719 -0.32031,6.605468 1.67578,12.742187 5.08203,18.609374 2.125,3.660157 4.375,7.265626 6.46094,10.941407 2.86719,5.039062 4.46875,10.316406 3.96094,15.972656 -0.36329,4.058594 -1.80469,7.855469 -3.83204,11.496094 -1.98046,3.558593 -4.16406,7.035161 -6.21875,10.566411 -2.01953,3.47265 -3.70703,7.04687 -4.51953,10.88671 -0.64453,3.0625 -0.60156,6.1211 -0.21093,9.19141 0.0742,0.61719 0.35937,1.21484 0.47656,1.60547 3.5625,-0.83203 6.95703,-1.70313 10.40625,-2.38672 1.54687,-0.30469 3.19922,-0.28906 4.80469,-0.32031 2.61328,-0.0508 2.61718,-0.0156 4.30468,2.23047 -0.65625,0.46093 -1.30859,0.98828 -2.04297,1.40625 -4.17578,2.39062 -7.92187,5.15625 -10.83984,8.66015 -11.47266,13.79688 -0.0664,28.48438 14.69141,31.10547 5.01953,0.89063 9.95312,0.55469 14.80078,-0.82812 0.71875,-0.20313 1.45312,-0.4375 2.19922,-0.48047 0.96093,-0.0625 1.46875,0.67187 0.90625,1.27734 -5.42969,5.81641 -11.48047,10.92188 -20.46485,12.69141 -9.3164,1.83203 -17.64062,0.0195 -25.14062,-4.82032 -1.27344,-0.82031 -2.44141,-1.75781 -4.03516,-2.91406 -0.0937,1.16406 -0.24609,2.04297 -0.21484,2.91797 0.14844,4.23438 1.04297,8.375 2.18359,12.49219 1.25,4.51953 2.59375,9.03906 3.46094,13.61328 1.05469,5.5625 0.78125,11.12891 -1.42188,16.52734 -3.05078,7.50391 -9.09375,12.79297 -17.32812,16.39063 -1.44141,0.6289 -2.3125,1.4375 -3.01953,2.67578 -4.26172,7.45312 -11.3125,11.76953 -21.07031,12.86719 -0.95313,0.10547 -1.6875,0.39453 -2.50782,0.83203 -2.36328,1.25 -4.8164,2.39453 -7.33203,3.41797 -5.29297,2.15234 -10.96484,3.40625 -16.60156,4.72656 -0.41016,0.0977 -0.82422,0.17969 -1.23047,0.28125 -6.05078,1.5625 -8.66797,4.76562 -8.26172,10.10156 0.0391,0.4961 0.20313,1.03906 0.0352,1.48828 -0.83203,2.26172 0.48047,4.15235 1.23437,6.40625 2.46094,-1.07422 4.6875,-2.04297 7.14844,-3.11718 -0.30078,-2.21485 -0.59766,-4.39844 -0.89062,-6.58204 -0.0977,-0.71093 -0.29297,-1.42187 -0.25,-2.1289 0.0781,-1.34375 1.30078,-1.88281 2.66015,-1.14844 0.77344,0.41797 1.42188,1.01563 2.08985,1.5625 1.75,1.4375 3.47656,2.89453 5.39843,4.49609 4.49219,-2.26953 8.85547,-4.45703 13.19532,-6.67578 1.11328,-0.57031 2.16406,-1.1914 3.66796,-0.16015 -2.51953,4.74609 -4.55078,9.73437 -8.10156,14.24218 3.17188,3.12891 6.27735,6.19532 9.38672,9.26563 -0.0625,0.13281 -0.12891,0.26953 -0.19141,0.40234 -4.47656,-0.53515 -8.95312,-1.07031 -13.46484,-1.60937 -0.39453,0.66015 -0.69141,1.15625 -0.95703,1.60547 0.15234,0.20312 0.20703,0.39453 0.32812,0.42968 3.58985,1.08594 7.16016,2.21094 10.78125,3.21485 4.625,1.28906 8.89063,0.25 12.875,-1.77344 1.54297,-0.78516 3.05079,-1.47656 4.83985,-1.80469 1.03125,-0.1875 1.98828,-0.75 2.91797,-1.22265 4.05078,-2.08203 8.08593,-4.1875 12.12109,-6.28907 1.76172,-0.91406 3.47656,-0.98828 5.22656,0.043 2.36328,1.38672 4.75782,2.73438 7.13672,4.09766 0.48828,0.28125 0.96094,0.80859 1.44922,0.82031 4.24609,0.0664 7.57422,2.22656 11.23828,3.52735 5.97656,2.125 11.25391,5.32421 16.22266,8.80468 14.23047,9.96094 28.57812,19.82032 42.48437,30.09766 13.47657,9.96094 25.50391,21.17969 37.15625,32.65625 2.875,2.82812 5.39844,5.85156 7.25782,9.27734 0.71875,1.32813 0.57421,2.3086 -0.48047,3.3125 -1.23438,1.1836 -2.48828,2.34766 -3.73828,3.51563 -19.08594,17.85937 -38.17579,35.71484 -57.25391,53.57422 -10.95703,10.26172 -21.89844,20.53125 -32.84375,30.80078 -1.73828,1.63281 -2.51563,1.78125 -5.13672,0.76953 -7.87109,-3.03125 -15.73437,-6.08203 -23.60156,-9.12891 -30.6875,-11.89062 -61.37891,-23.77734 -92.06641,-35.66797 -2.23828,-0.86718 -4.46094,-1.7539 -6.70312,-2.61328 -2.77344,-1.05859 -5.46485,-2.28125 -8.60157,-2.51172 -1.79296,-0.13281 -2.92187,-1.17578 -4.08593,-2.30468 -9.53516,-9.25 -19.79297,-17.87891 -31.25781,-25.46485 -11.01172,-7.28515 -21.738286,-14.89062 -33.355474,-21.51172 -8.046875,-4.58593 -16.488281,-8.52734 -25.855468,-10.90234 -5.054688,-1.28125 -10.191407,-2.19531 -15.480469,-2.39844 -0.585938,-0.0234 -1.1875,-0.10937 -1.742188,-0.26953 -1.128906,-0.32422 -1.929687,-0.94922 -1.902343,-2.03125 0.02344,-1.07031 0.78125,-1.72265 1.957031,-1.98437 1.96875,-0.44141 3.949219,-0.83594 5.925781,-1.23828 1.398438,-0.28516 2.867188,-0.41407 4.199219,-0.84766 6.625,-2.14453 13.558593,-2.45313 20.535156,-2.55859 1.066406,-0.0195 2.136719,-0.004 3.207031,-0.004"
         fill="#231f20"
         id="path2"
         style="fill:#ffcb71;fill-opacity:1" />
    </g>
    <g
       id="change1_1"
       style="fill:#ffcb71;fill-opacity:1">
      <path
         d="m 90.242188,310.81641 c -2.382813,1.0625 -4.589844,2.10937 -6.871094,3.03906 -1.4375,0.58594 -2.9375,1.13672 -4.484375,1.45703 -1.875,0.38281 -2.585938,-0.34766 -1.917969,-1.88281 1.28125,-2.94141 2.667969,-5.85157 4.140625,-9.0586 -1.335937,-0.83203 -2.75,-1.6914 -4.132813,-2.58593 -0.835937,-0.53907 -2.230468,-0.95704 -1.589843,-2.10547 0.671875,-1.21094 1.933593,-0.40625 2.925781,-0.23438 1.722656,0.29688 3.421875,0.69141 5.332031,1.08203 1.304688,-2.42968 2.503907,-4.70312 3.75,-6.95703 0.421875,-0.76562 0.917969,-1.51562 1.484375,-2.21484 0.25,-0.30078 0.890625,-0.71094 1.117188,-0.62891 0.460937,0.17188 0.867187,0.60547 1.089844,1.01172 0.277343,0.50781 0.355468,1.09766 0.507812,1.65625 0.65625,2.43359 1.378906,4.85938 1.929688,7.30859 0.257812,1.15625 0.777343,1.73829 2.257812,1.83204 2.019531,0.1289 4.023438,0.47656 6.03906,0.6914 0.97657,0.10547 1.52344,0.47656 1.64453,1.33594 0.125,0.875 -0.38281,1.32422 -1.26953,1.61328 -2.12109,0.69141 -4.234372,1.40234 -6.640622,2.20313 0.558593,1.83984 0.992187,3.5625 1.628906,5.22656 0.28125,0.72656 0.738281,1.3125 -0.269532,1.83594 -1.007812,0.52734 -1.554687,-0.0899 -2.125,-0.625 -1.125,-1.0586 -2.234374,-2.12891 -3.371093,-3.17969 -0.277344,-0.25781 -0.640625,-0.45313 -1.175781,-0.82031"
         fill="#231f20"
         id="path3"
         style="fill:#ffcb71;fill-opacity:1" />
    </g>
    <g
       id="change1_2"
       style="fill:#ffcb71;fill-opacity:1">
      <path
         d="m 129.8125,310.42969 c 1.51562,0.39843 3.09766,0.67578 4.53516,1.21484 2.90234,1.08984 5.625,4.90625 4.07421,8.14453 -1.5664,3.26953 -5.21484,5.09766 -9.35937,4.375 -1.06641,-0.1875 -2.11328,-0.53515 -3.10937,-0.91797 -1.94141,-0.74218 -3.02344,-2.08593 -3.16797,-3.85547 -0.19141,-2.41796 0.4375,-4.70703 2.16015,-6.68359 1.15235,-1.32422 2.71094,-2.14453 4.86719,-2.27734"
         fill="#231f20"
         id="path4"
         style="fill:#ffcb71;fill-opacity:1" />
    </g>
    <g
       id="change1_3"
       style="fill:#ffcb71;fill-opacity:1">
      <path
         d="m 62.46875,315.90625 c 0.01953,2.125 -1.453125,3.44531 -3.847656,3.44922 -2.34375,0.004 -4.316406,-1.56641 -4.34375,-3.45313 -0.02344,-1.60547 2.53125,-3.51562 4.714844,-3.53125 2.019531,-0.0156 3.460937,1.45313 3.476562,3.53516"
         fill="#231f20"
         id="path5"
         style="fill:#ffcb71;fill-opacity:1" />
    </g>
    <g
       id="change1_4"
       style="fill:#ffcb71;fill-opacity:1">
      <path
         d="m 110.16797,318.24219 c 1.86719,-0.0274 3.30078,1.17968 3.38281,2.85156 0.0859,1.83594 -1.4375,3.42578 -3.30859,3.45312 -1.89063,0.0234 -3.90235,-1.52343 -3.94141,-3.03125 -0.043,-1.79296 1.66016,-3.23828 3.86719,-3.27343"
         fill="#231f20"
         id="path6"
         style="fill:#ffcb71;fill-opacity:1" />
    </g>
    <g
       id="change1_5"
       style="fill:#ffcb71;fill-opacity:1">
      <path
         d="m 72.605469,284.97266 c -1.535157,-0.0156 -2.832031,-1.19141 -2.804688,-2.53907 0.02344,-1.24218 1.039063,-2.01172 2.679688,-2.03125 1.777343,-0.0195 3.007812,0.94922 2.933593,2.3125 -0.07031,1.28516 -1.300781,2.27344 -2.808593,2.25782"
         fill="#231f20"
         id="path7"
         style="fill:#ffcb71;fill-opacity:1" />
    </g>
    <g
       id="change1_6"
       style="fill:#ffcb71;fill-opacity:1">
      <path
         d="m 54.765625,291.10547 c -0.05859,1.23828 -0.761719,1.98828 -1.800781,1.91406 -1.003906,-0.0742 -2.222656,-1.24609 -2.144532,-2.06641 0.08984,-0.92968 1.09375,-1.90234 1.988282,-1.91796 1.117187,-0.0195 2.007812,0.92187 1.957031,2.07031"
         fill="#231f20"
         id="path8"
         style="fill:#ffcb71;fill-opacity:1" />
    </g>
    <g
       id="change1_7"
       style="fill:#ffcb71;fill-opacity:1">
      <path
         d="m 81.28125,208.65625 c -0.464844,-1.72266 -0.679688,-3.53125 -1.457031,-5.14844 -1.300781,-2.72265 -4.175781,-3.57031 -7.316407,-2.26953 -1.339843,0.55469 -2.5,1.44141 -3.703124,2.21484 -0.464844,0.30079 -0.804688,0.73829 -1.242188,1.07422 -0.519531,0.40625 -1.207031,0.77735 -1.722656,0.15625 -0.242188,-0.29297 -0.175782,-1.02734 0.105468,-1.32422 1.988282,-2.10937 4.339844,-3.83203 7.585938,-4.41015 3.304688,-0.58985 6.0625,0.42578 7.816406,2.85547 1.605469,2.21875 2.050782,4.70312 1.90625,7.22265 -0.332031,5.73438 -2.628906,10.87891 -6.972656,15.33594 -1.636719,1.67578 -3.5625,3.06641 -5.964844,3.91016 -4.207031,1.48828 -8.074218,0.30468 -9.945312,-3.19532 -0.714844,-1.34375 -0.992188,-2.85937 -1.355469,-4.3164 -0.15625,-0.62891 -0.03516,-1.39453 0.992187,-1.46094 0.867188,-0.0547 1.03125,0.58203 1.152344,1.17188 0.160156,0.77343 0.285156,1.55859 0.527344,2.3125 1.328125,4.13671 5.175781,5.46093 9.308594,2.99218 1.894531,-1.1289 3.59375,-2.63672 4.949218,-4.23828 3.226563,-3.80078 4.921876,-8.10937 5.335938,-12.88281"
         fill="#231f20"
         id="path9"
         style="fill:#ffcb71;fill-opacity:1" />
    </g>
    <g
       id="change1_8"
       style="fill:#ffcb71;fill-opacity:1">
      <path
         d="m 71.796875,240.62891 c -0.175781,-0.0391 -0.65625,-0.043 -0.957031,-0.24219 -0.285156,-0.1875 -0.488282,-0.57422 -0.503906,-0.88281 -0.01172,-0.19141 0.351562,-0.4961 0.621093,-0.57813 0.464844,-0.14844 0.988281,-0.17969 1.492188,-0.23437 2.449219,-0.26563 4.421875,-1.23438 6.214843,-2.66797 2.917969,-2.32813 5.515626,-4.83985 7.472657,-7.8086 0.125,-0.1875 0.238281,-0.38672 0.402343,-0.54297 3.039063,-2.90234 4.886719,-6.3125 6.046876,-10.01953 0.101562,-0.32422 0.316406,-0.70312 0.621093,-0.89062 0.5625,-0.34766 1.1875,-0.26563 1.402344,0.35156 0.140625,0.39063 0.148437,0.875 0,1.25781 -1.082031,2.84766 -1.890625,5.78516 -4.253906,8.17969 -1.132813,1.14453 -2.109375,2.41797 -3.027344,3.69531 -2.316406,3.22266 -5.347656,5.89844 -8.714844,8.32422 -1.585937,1.14453 -4.746093,2.09375 -6.816406,2.0586"
         fill="#231f20"
         id="path10"
         style="fill:#ffcb71;fill-opacity:1" />
    </g>
    <g
       id="change1_9"
       style="fill:#ffcb71;fill-opacity:1">
      <path
         d="m 62.867188,236.08594 c -3.582032,0.52734 -6.574219,-1.03516 -9.675782,-2.05078 -0.886718,-0.28907 -1.492187,-1.3086 -2.089844,-2.07032 -0.214843,-0.27343 -0.164062,-1.05859 0,-1.11328 0.460938,-0.15234 1.140626,-0.20703 1.554688,-0.0156 0.863281,0.39843 1.625,0.96484 2.40625,1.48828 3.265625,2.19922 7.074219,2.00781 10.894531,1.7539 0.5,-0.0312 1.027344,-0.23828 1.488281,-0.15234 0.417969,0.0742 1.003907,0.39453 1.070313,0.68359 0.06641,0.29297 -0.316406,0.78125 -0.667969,0.98829 -0.382812,0.22656 -0.945312,0.27734 -1.441406,0.3125 -1.175781,0.0859 -2.359375,0.12109 -3.539062,0.17578"
         fill="#231f20"
         id="path11"
         style="fill:#ffcb71;fill-opacity:1" />
    </g>
    <g
       id="change1_10"
       style="fill:#ffcb71;fill-opacity:1">
      <path
         d="m 153.46094,196.45703 c -0.32422,2.82031 -0.60547,5.64844 -0.99219,8.46484 -0.10547,0.75782 -0.47266,1.50782 -0.85547,2.20704 -0.12109,0.21875 -0.75,0.41406 -1.04687,0.34375 -0.31641,-0.0781 -0.56641,-0.46875 -0.73829,-0.76954 -0.0937,-0.16015 -0.004,-0.41796 0.0547,-0.62109 1.1875,-4.25781 1.09375,-8.60547 1.32031,-12.93359 0.0156,-0.21485 0.004,-0.42578 0.008,-0.64063 0.008,-0.67578 0.0977,-1.39844 1.13281,-1.35937 1.01172,0.0391 1.10156,0.82812 1.08984,1.44922 -0.0195,1.28125 -0.16406,2.55859 -0.25781,3.83593 0.0937,0.008 0.1875,0.0156 0.28516,0.0234"
         fill="#231f20"
         id="path12"
         style="fill:#ffcb71;fill-opacity:1" />
    </g>
    <g
       id="change1_11"
       style="fill:#ffcb71;fill-opacity:1">
      <path
         d="m 64.066406,252.82031 c -1.089844,-0.0898 -2.195312,-0.10937 -3.257812,-0.30859 -0.335938,-0.0664 -0.777344,-0.62891 -0.746094,-0.9336 0.03125,-0.26953 0.609375,-0.58593 1.023438,-0.71093 0.363281,-0.11328 0.832031,0.004 1.253906,0.0234 3.636718,0.15625 7.03125,-0.61718 10.28125,-1.91796 0.382812,-0.15625 0.765625,-0.39844 1.15625,-0.41016 0.355468,-0.0117 0.878906,0.14844 1.042968,0.37891 0.167969,0.23437 0.144532,0.78906 -0.06641,0.95312 -0.621094,0.46484 -1.320312,0.92188 -2.085937,1.17188 -2.761719,0.90625 -5.574219,1.67968 -8.601563,1.7539"
         fill="#231f20"
         id="path13"
         style="fill:#ffcb71;fill-opacity:1" />
    </g>
    <g
       id="change1_12"
       style="fill:#ffcb71;fill-opacity:1">
      <path
         d="m 90.746094,198.34375 c 0,0.14062 0.0625,0.3125 -0.01172,0.41797 -0.242187,0.33984 -0.535156,0.65234 -0.8125,0.97656 C 89.5,199.46094 88.851562,199.25 88.703125,198.89453 88.375,198.10156 88.34375,197.22656 88.105469,196.40234 c -0.277344,-0.96093 -0.65625,-1.90234 -0.976563,-2.85547 -0.214844,-0.63671 -0.394531,-1.39843 0.566406,-1.58984 0.382813,-0.0742 1.246094,0.45313 1.40625,0.84375 0.730469,1.80078 1.289063,3.65234 1.90625,5.48438 -0.08594,0.0195 -0.171874,0.0391 -0.261718,0.0586"
         fill="#231f20"
         id="path14"
         style="fill:#ffcb71;fill-opacity:1" />
    </g>
    <g
       id="change1_13"
       style="fill:#ffcb71;fill-opacity:1">
      <path
         d="m 67.625,192.79687 c -0.203125,0.20704 -0.40625,0.53125 -0.726562,0.71094 -1.179688,0.66406 -2.367188,1.32031 -3.613282,1.88281 -0.359375,0.16407 -0.917968,0.0117 -1.386718,0.004 0.01172,-0.44531 -0.175782,-1.00391 0.07422,-1.3125 0.996094,-1.21875 2.488282,-1.88281 4.167969,-2.23047 0.78125,-0.16015 1.296875,0.13281 1.484375,0.94531"
         fill="#231f20"
         id="path15"
         style="fill:#ffcb71;fill-opacity:1" />
    </g>
    <g
       id="change1_14"
       style="fill:#ffcb71;fill-opacity:1">
      <path
         d="m 122.75781,341.875 c 0.51172,0.23047 1.02735,0.35937 1.375,0.63672 0.90625,0.74219 1.71485,1.57031 2.61719,2.3164 1.61719,1.34375 3.13672,2.80469 4.94922,3.9336 2.46484,1.53515 4.76172,3.14844 6.71484,5.16797 1.15235,1.1875 2.64063,2.1914 4.13281,3.09765 1.73829,1.0586 3.28907,2.21094 4.50391,3.71094 1.04688,1.29688 2.23438,2.50781 3.34375,3.76953 0.34766,0.39453 0.72656,0.80469 0.90625,1.26172 0.10547,0.26563 -0.043,0.76563 -0.28906,0.92578 -0.25391,0.16406 -0.83985,0.16016 -1.14844,0.0234 -0.42578,-0.19141 -0.75,-0.5625 -1.07031,-0.88672 -0.75391,-0.77344 -1.56641,-1.51562 -2.19531,-2.35547 -1.79297,-2.39062 -4.0586,-4.3164 -6.94141,-5.82031 -1.32031,-0.6875 -2.23047,-1.92578 -3.38672,-2.85938 -1.69922,-1.37109 -3.32812,-2.83984 -5.21484,-4.01171 -2.40235,-1.4961 -4.65625,-3.05469 -6.41797,-5.11329 -0.68359,-0.79687 -1.69141,-1.39453 -2.44141,-2.15625 -0.25781,-0.26171 -0.28125,-0.76562 -0.22265,-1.13671 0.0312,-0.1836 0.48047,-0.32032 0.78515,-0.50391"
         fill="#231f20"
         id="path16"
         style="fill:#ffcb71;fill-opacity:1" />
    </g>
    <g
       id="change1_15"
       style="fill:#ffcb71;fill-opacity:1">
      <path
         d="m 153.12109,357.24219 c 0.0703,0.87109 -0.83203,1.29687 -1.61718,0.85156 -1.1211,-0.63281 -2.20704,-1.33203 -3.19922,-2.10156 -2.50782,-1.94141 -5.33985,-3.45703 -8.1836,-5.02344 -3.01953,-1.66016 -5.64062,-3.85156 -8.37109,-5.87109 -0.32422,-0.24219 -0.50391,-0.98438 -0.30469,-1.28516 0.42188,-0.65234 1.19531,-0.36328 1.75781,-0.0391 0.55469,0.32031 1.03516,0.73437 1.52344,1.1289 2.625,2.13672 5.51953,3.9375 8.63281,5.57813 3.20704,1.6875 6.04297,3.875 9.01563,5.875 0.37109,0.25 0.57422,0.67578 0.74609,0.88672"
         fill="#231f20"
         id="path17"
         style="fill:#ffcb71;fill-opacity:1" />
    </g>
    <g
       id="change1_16"
       style="fill:#ffcb71;fill-opacity:1">
      <path
         d="m 142.40234,341.30469 c 0.44532,0.14062 0.87891,0.21093 1.21485,0.39843 0.76953,0.4336 1.49218,0.92969 2.23047,1.39844 1.9414,1.23828 3.91406,2.44922 5.8164,3.72656 1.64063,1.10157 3.22266,2.26954 4.79688,3.44141 0.36718,0.27344 0.73047,0.66016 0.83593,1.04297 0.0937,0.34375 -0.0586,0.83203 -0.32421,1.10547 -0.14844,0.15234 -0.81641,0.10156 -1.125,-0.043 -0.42188,-0.19922 -0.70313,-0.60547 -1.08985,-0.87109 -1.75781,-1.20313 -3.52344,-2.40235 -5.30078,-3.58594 -2.50781,-1.66797 -5.05078,-3.30469 -7.52344,-5.00781 -0.28906,-0.19922 -0.33593,-0.75 -0.3125,-1.12891 0.0117,-0.16406 0.48438,-0.30469 0.78125,-0.47656"
         fill="#231f20"
         id="path18"
         style="fill:#ffcb71;fill-opacity:1" />
    </g>
    <g
       id="change1_17"
       style="fill:#ffcb71;fill-opacity:1">
      <path
         d="m 159.48437,234.07422 c -0.28515,3.91797 -1.07031,7.14844 -3.12109,10.15234 -1.34766,1.96875 -2.27734,4.13672 -3.44531,6.19531 -1.16406,2.05469 -2.34375,4.11329 -3.6211,6.11719 -0.40625,0.64063 -1.05078,1.63672 -2.11718,1.07031 -1.3086,-0.69531 -0.11719,-1.45703 0.3125,-2.16796 1.08203,-1.77344 2.17187,-3.54688 3.1875,-5.34766 1.34765,-2.38281 2.51562,-4.83594 3.96093,-7.17188 1.98047,-3.19921 2.75391,-6.57031 2.51172,-10.13671 -0.0195,-0.28125 -0.18359,-0.59766 -0.082,-0.83985 0.125,-0.30078 0.45313,-0.7539 0.69922,-0.75781 0.41797,-0.004 1.125,0.22656 1.20703,0.47656 0.3086,0.94922 0.42188,1.94141 0.50781,2.41016"
         fill="#231f20"
         id="path19"
         style="fill:#ffcb71;fill-opacity:1" />
    </g>
    <g
       id="change1_18"
       style="fill:#ffcb71;fill-opacity:1">
      <path
         d="m 173.28516,237.83984 c -0.60938,2.98438 -0.83985,5.73828 -1.76563,8.3125 -1.55469,4.3086 -3.71484,8.4336 -7.08984,12.01172 -0.41797,0.44141 -0.89063,0.875 -1.44141,1.17969 -0.25781,0.14062 -0.87891,0.0703 -1.125,-0.10938 -0.23828,-0.17578 -0.36719,-0.66796 -0.25,-0.92187 0.21094,-0.45313 0.64844,-0.82813 0.98438,-1.23828 3.86328,-4.67578 6.96093,-9.61719 7.625,-15.42969 0.14453,-1.27344 0.47265,-2.54297 0.86328,-3.78125 0.12109,-0.38672 0.72656,-0.66016 1.10937,-0.98828 0.40625,0.35937 0.8086,0.71875 1.08985,0.96484"
         fill="#231f20"
         id="path20"
         style="fill:#ffcb71;fill-opacity:1" />
    </g>
    <g
       id="change1_19"
       style="fill:#ffcb71;fill-opacity:1">
      <path
         d="m 106.625,273.60156 c -0.32031,-0.625 -0.71875,-1.03906 -0.66016,-1.39062 0.0625,-0.35938 0.51563,-0.73047 0.90625,-0.97266 4.55079,-2.82812 7.10547,-6.83203 9.26172,-11.07422 0.5,-0.98437 1.03125,-1.96094 1.58203,-2.92578 0.3086,-0.54297 0.76563,-1.02344 1.58204,-0.75 0.8164,0.28125 0.78125,0.85938 0.46875,1.44141 -2.71875,5.07031 -5.00782,10.37109 -10.41407,14.01953 -0.77343,0.52344 -1.61328,0.98047 -2.72656,1.65234"
         fill="#231f20"
         id="path21"
         style="fill:#ffcb71;fill-opacity:1" />
    </g>
    <g
       id="change1_20"
       style="fill:#ffcb71;fill-opacity:1">
      <path
         d="m 240.83594,216.89453 c 0.2539,0 0.54687,-0.0742 0.75,0.0117 0.41797,0.17187 0.78515,0.42969 1.17578,0.65234 -0.32031,0.36328 -0.63672,0.73047 -0.96485,1.08594 -0.043,0.0469 -0.16015,0.0391 -0.24218,0.0508 -7.8711,1.10547 -12.92578,5.4336 -17.26563,10.625 -1.26562,1.51172 -2.78906,2.8711 -4.0625,4.38281 -0.76953,0.91407 -1.29687,1.97657 -1.91797,2.98047 -0.19531,0.3125 -0.29297,0.67578 -0.51172,0.97657 -0.44531,0.60546 -0.9375,1.39843 -1.9375,0.99218 -1.10937,-0.44922 -0.35546,-1.16406 -0.10546,-1.82812 1.08984,-2.86328 3.25781,-5.125 5.53515,-7.35156 1.26563,-1.23829 2.19531,-2.71875 3.49219,-3.92579 1.64453,-1.52734 3.42969,-2.95703 5.29297,-4.28906 1.54687,-1.10156 3.28906,-2.01172 4.96094,-2.98437 1.74609,-1.00782 3.73828,-1.29688 5.80078,-1.37891"
         fill="#231f20"
         id="path22"
         style="fill:#ffcb71;fill-opacity:1" />
    </g>
    <g
       id="change1_21"
       style="fill:#ffcb71;fill-opacity:1">
      <path
         d="m 222.04297,245.85156 c -1.21485,-0.11719 -1.69922,-0.63672 -1.52735,-1.33984 0.19922,-0.82031 0.49219,-1.69922 1.0625,-2.35938 1.28516,-1.48437 2.72266,-2.88672 4.19532,-4.24609 0.54297,-0.5 1.43359,-1.01172 2.17968,-0.23828 0.64063,0.66406 -0.0625,1.14062 -0.63671,1.59765 -0.67579,0.53516 -1.29297,1.1211 -1.92188,1.69532 -1.21484,1.10156 -2.29297,2.26172 -2.61719,3.8164 -0.0859,0.41016 -0.51562,0.76953 -0.73437,1.07422"
         fill="#231f20"
         id="path23"
         style="fill:#ffcb71;fill-opacity:1" />
    </g>
  </g>
</svg>
