<?xml version="1.0" encoding="UTF-8" standalone="no"?>
<svg
   fill="none"
   height="442.4"
   preserveAspectRatio="xMidYMid meet"
   style="fill: none;"
   version="1.0"
   viewBox="24.6 35.0 462.6 442.4"
   width="462.6"
   zoomAndPan="magnify"
   id="svg54"
   sodipodi:docname="f-s-4.svg"
   inkscape:version="1.4 (e7c3feb1, 2024-10-09)"
   xmlns:inkscape="http://www.inkscape.org/namespaces/inkscape"
   xmlns:sodipodi="http://sodipodi.sourceforge.net/DTD/sodipodi-0.dtd"
   xmlns="http://www.w3.org/2000/svg"
   xmlns:svg="http://www.w3.org/2000/svg">
  <defs
     id="defs54" />
  <sodipodi:namedview
     id="namedview54"
     pagecolor="#ffffff"
     bordercolor="#000000"
     borderopacity="0.25"
     inkscape:showpageshadow="2"
     inkscape:pageopacity="0.0"
     inkscape:pagecheckerboard="0"
     inkscape:deskcolor="#d1d1d1"
     inkscape:zoom="17.733883"
     inkscape:cx="78.803946"
     inkscape:cy="256.11987"
     inkscape:window-width="1680"
     inkscape:window-height="997"
     inkscape:window-x="0"
     inkscape:window-y="25"
     inkscape:window-maximized="1"
     inkscape:current-layer="svg54" />
  <g
     id="change1_1">
    <path
       d="M246.12 42.1494C223.75 46.7194 204.73 64.4694 198.09 86.3094C191.45 108.149 197.19 133.189 212.26 150.339C227.33 167.489 251.1 176.389 273.79 173.929C295.61 171.569 316.23 158.739 327.3 139.789C338.37 120.839 339.31 96.1494 329 76.7694C322.22 64.0194 311.02 53.8694 298.15 47.3294C285.28 40.7894 270.8 37.7394 256.37 37.3594L246.12 42.1494Z"
       fill="#fff"
       id="path1"
       style="fill:#ffffff;fill-opacity:0" />
  </g>
  <g
     id="change1_2"
     style="fill:#ffffff;fill-opacity:0.00711744">
    <path
       d="M270.63 106.06C277.76 104.6 283.82 98.9402 285.94 91.9802C288.06 85.0202 286.23 77.0302 281.42 71.5702C276.62 66.1002 269.04 63.2602 261.8 64.0502C254.84 64.8002 248.27 68.8902 244.74 74.9402C241.21 80.9802 240.91 88.8502 244.2 95.0302C246.36 99.0902 249.93 102.33 254.03 104.41C258.13 106.49 262.75 107.47 267.35 107.59L270.63 106.06Z"
       fill="#fff"
       id="path2"
       style="fill:#ffffff;fill-opacity:0.00711744" />
  </g>
  <g
     id="change1_3"
     style="fill:#ffffff;fill-opacity:0">
    <path
       d="M285.23 121.26C272.88 113.79 256.6 113.31 243.82 120.03C231.05 126.75 222.23 140.44 221.39 154.85L221.06 158.68C235.74 170.3 255.13 175.96 273.8 173.94C285.1 172.72 296.07 168.68 305.57 162.45V157.35C305.58 142.91 297.58 128.72 285.23 121.26Z"
       fill="#fff"
       id="path3"
       style="fill:#ffffff;fill-opacity:0" />
  </g>
  <g
     id="change1_4">
    <path
       d="M393.43 195.13C371.06 199.7 352.04 217.45 345.4 239.29C338.76 261.13 344.5 286.17 359.57 303.32C374.64 320.47 398.41 329.37 421.1 326.91C442.92 324.55 463.54 311.72 474.61 292.77C485.68 273.82 486.62 249.13 476.31 229.75C469.53 217 458.33 206.85 445.46 200.31C432.59 193.77 418.11 190.72 403.68 190.34L393.43 195.13Z"
       fill="#fff"
       id="path4"
       style="fill:#ffffff;fill-opacity:0" />
  </g>
  <g
     id="change1_5"
     style="fill:#ffffff;fill-opacity:0">
    <path
       d="M248.02 209.459C235.86 211.939 225.52 221.589 221.91 233.469C218.3 245.349 221.42 258.959 229.61 268.279C237.8 277.599 250.72 282.439 263.06 281.109C274.92 279.829 286.13 272.849 292.15 262.549C298.17 252.249 298.68 238.829 293.08 228.289C289.4 221.359 283.31 215.839 276.31 212.289C269.31 208.739 261.44 207.079 253.59 206.869L248.02 209.459Z"
       fill="#fff"
       id="path5"
       style="fill:#ffffff;fill-opacity:0" />
  </g>
  <g
     id="change1_6"
     style="fill:#ffffff;fill-opacity:0">
    <path
       d="M417.94 259.04C425.07 257.58 431.13 251.92 433.25 244.96C435.37 238 433.54 230.01 428.73 224.55C423.92 219.09 416.35 216.24 409.11 217.03C402.15 217.78 395.58 221.87 392.05 227.92C388.52 233.96 388.22 241.83 391.51 248.01C393.67 252.07 397.24 255.31 401.34 257.39C405.44 259.47 410.06 260.45 414.66 260.57L417.94 259.04Z"
       fill="#fff"
       id="path6"
       style="fill:#ffffff;fill-opacity:0" />
  </g>
  <g
     id="change1_7"
     style="fill:#ffffff;fill-opacity:0">
    <path
       d="M432.54 274.231C420.19 266.761 403.91 266.281 391.13 273.001C378.36 279.721 369.54 293.411 368.7 307.821L368.33 311.611C383.01 323.251 402.42 328.931 421.11 326.901C432.32 325.691 443.2 321.711 452.64 315.561L452.88 310.311C452.89 295.891 444.89 281.701 432.54 274.231Z"
       fill="#fff"
       id="path7"
       style="fill:#ffffff;fill-opacity:0" />
  </g>
  <g
     id="change1_8">
    <path
       d="M79.2503 195.13C56.8803 199.7 37.8603 217.45 31.2203 239.29C24.5803 261.13 30.3203 286.17 45.3903 303.32C60.4603 320.47 84.2303 329.37 106.92 326.91C128.74 324.55 149.36 311.72 160.43 292.77C171.5 273.82 172.44 249.13 162.13 229.75C155.35 217 144.15 206.85 131.28 200.31C118.41 193.77 103.93 190.72 89.5003 190.34L79.2503 195.13Z"
       fill="#fff"
       id="path8"
       style="fill:#ffffff;fill-opacity:0" />
  </g>
  <g
     id="change1_9"
     style="fill:#ffffff;fill-opacity:0.00711744">
    <path
       d="M103.77 259.041C110.9 257.581 116.96 251.921 119.08 244.961C121.2 238.001 119.37 230.011 114.56 224.551C109.76 219.081 102.18 216.241 94.9402 217.031C87.9802 217.781 81.4102 221.871 77.8802 227.921C74.3502 233.961 74.0502 241.831 77.3402 248.011C79.5002 252.071 83.0702 255.311 87.1702 257.391C91.2702 259.471 95.8902 260.451 100.49 260.571L103.77 259.041Z"
       fill="#fff"
       id="path9"
       style="fill:#ffffff;fill-opacity:0.00711744" />
  </g>
  <g
     id="change1_10"
     style="fill:#ffffff;fill-opacity:0.00355872">
    <path
       d="M118.36 274.231C106.01 266.761 89.7303 266.281 76.9503 273.001C64.1703 279.721 55.3604 293.411 54.5204 307.821L54.3604 311.781C69.0204 323.301 88.3303 328.921 106.92 326.911C118.2 325.691 129.16 321.661 138.64 315.441C138.57 313.901 138.57 312.201 138.68 310.311C139.56 295.921 130.72 281.701 118.36 274.231Z"
       fill="#fff"
       id="path10"
       style="fill:#ffffff;fill-opacity:0.00355872" />
  </g>
  <g
     id="change1_11"
     style="fill:#ffcb71;fill-opacity:0">
    <path
       d="M272.24 116.21C271.07 118.7 269.35 122.33 268.45 124.25C266.57 124.59 263.61 125.18 262.39 125.37C261.88 125.45 261.33 125.52 260.86 125.3C260.79 125.27 260.73 125.23 260.66 125.19C260.26 124.92 260 124.45 259.77 124.02C258.75 122.07 256.81 118.46 255.52 116.01C261.03 115.01 266.75 115.07 272.24 116.21Z"
       fill="#fff"
       id="path11"
       style="fill:#ffcb71;fill-opacity:0" />
  </g>
  <g
     id="change1_12"
     style="fill:#ffcb71;fill-opacity:0">
    <path
       d="M273.65 149.88C271.69 154.04 269.04 158.13 265.99 161.61L262.53 161.88C259.6 158.9 257.17 155.42 255.4 151.63C255.18 151.16 254.97 150.67 254.91 150.15C254.81 149.25 255.18 148.37 255.52 147.54C258.01 141.51 259.95 132.09 260.66 125.19C260.73 125.23 260.79 125.27 260.86 125.3C261.33 125.52 261.88 125.45 262.39 125.37C263.61 125.18 266.57 124.59 268.45 124.25C268.43 124.28 268.42 124.3 268.41 124.33C268.09 125.01 267.77 125.7 267.64 126.44C267.51 127.23 267.6 128.04 267.7 128.83C268.6 136.12 269.84 143.59 273.65 149.88Z"
       fill="#fff"
       id="path12"
       style="fill:#ffcb71;fill-opacity:0" />
  </g>
  <g
     id="change1_13"
     style="fill:#ffffff;fill-opacity:0">
    <path
       d="M98.9101 302.87L96.6101 308.29L95.2301 303.79L94.4101 301.09C92.4601 296.39 90.4901 291.67 87.8101 287.35C86.4201 285.12 84.8501 283.01 83.2901 280.91C81.5901 278.62 79.8801 276.33 78.1801 274.04L77.3701 272.8C79.8001 271.56 82.3401 270.57 84.9701 269.84L85.6501 270.5C90.5401 276.99 94.2501 284.36 96.5301 292.15L97.4901 296.49L98.9101 302.87Z"
       fill="#fff"
       id="path13"
       style="fill:#ffffff;fill-opacity:0" />
  </g>
  <g
     id="change1_14"
     style="fill:#ffffff;fill-opacity:0">
    <path
       d="M116.69 273.28L115.94 274.21C108.81 290.41 103.65 307.47 100.62 324.91L100.57 327.31C97.7504 327.36 94.9204 327.23 92.1104 326.94V323.2C92.2904 316.63 93.4704 310.13 95.2304 303.79C95.6804 302.17 96.1704 300.55 96.6804 298.95C96.9404 298.13 97.2103 297.32 97.4903 296.5V296.49C100.43 287.88 104.25 279.57 108.84 271.71L110.04 270.43C112.34 271.18 114.57 272.13 116.69 273.28Z"
       fill="#fff"
       id="path14"
       style="fill:#ffffff;fill-opacity:0" />
  </g>
  <g
     id="change1_15"
     style="fill:#ffffff;fill-opacity:0.00355872">
    <path
       d="M246.12 342.44C223.75 347.01 204.73 364.76 198.09 386.6C191.45 408.44 197.19 433.48 212.26 450.63C227.33 467.78 251.1 476.68 273.79 474.22C295.61 471.86 316.23 459.03 327.3 440.08C338.37 421.13 339.31 396.44 329 377.06C322.22 364.31 311.02 354.16 298.15 347.62C285.28 341.08 270.8 338.03 256.37 337.65L246.12 342.44Z"
       fill="#fff"
       id="path15"
       style="fill:#ffffff;fill-opacity:0.00355872" />
  </g>
  <g
     id="change1_16"
     style="fill:#ffffff;fill-opacity:0.00355872">
    <path
       d="M305.56 457.639C305.58 443.199 297.58 429.019 285.23 421.549C272.88 414.079 256.6 413.599 243.82 420.319C231.05 427.039 222.23 440.729 221.39 455.139V459.229C236.03 470.669 255.27 476.229 273.79 474.229C285.13 472.999 296.15 468.939 305.67 462.659L305.56 457.639Z"
       fill="#fff"
       id="path16"
       style="fill:#ffffff;fill-opacity:0.00355872" />
  </g>
  <g
     id="change1_17"
     style="fill:#ffffff;fill-opacity:0">
    <path
       d="M305.67 462.661C296.15 468.941 285.14 473.001 273.79 474.231C268.6 474.791 263.36 474.761 258.17 474.161L257.89 472.181C257.67 468.631 257.87 465.081 258.37 461.561C261.1 458.541 265.32 454.941 266.55 453.461C271.44 447.571 277.68 442.971 283.97 438.621C281.71 436.351 279.04 434.491 276.12 433.141C278.87 430.871 281.82 428.841 284.93 427.091C283.45 425.241 281.79 421.821 280.21 418.971C281.94 419.711 283.62 420.571 285.23 421.541C297.58 429.011 305.58 443.201 305.56 457.641L305.67 462.661Z"
       fill="#fff"
       id="path17"
       style="fill:#ffffff;fill-opacity:0" />
  </g>
  <g
     id="change1_18"
     style="fill:#ffffff;fill-opacity:0.01067616">
    <path
       d="M258.37 461.56C257.87 465.08 257.67 468.63 257.89 472.18L258.17 474.16C244.85 472.65 231.92 467.46 221.39 459.23V455.14C222.23 440.73 231.05 427.04 243.82 420.32C244.19 420.13 244.56 419.94 244.94 419.76C243.23 422.91 240.75 427.68 239.44 429.98C243.13 429.53 246.9 429.77 250.51 430.67C248.74 433.62 247.17 436.69 245.8 439.85C248.36 439.12 251.15 439.51 253.59 440.56C255.65 441.45 259.91 444.12 262.34 446.05C260.57 451.09 259.13 456.29 258.37 461.56Z"
       fill="#fff"
       id="path18"
       style="fill:#ffffff;fill-opacity:0.01067616" />
  </g>
  <g
     id="change1_19"
     style="fill:#ffcb71;fill-opacity:0.01067616">
    <path
       d="M263.66 442.451C263.41 443.111 263.16 443.771 262.92 444.431C262.72 444.971 262.53 445.511 262.34 446.051C259.91 444.121 255.65 441.451 253.59 440.561C251.15 439.511 248.36 439.121 245.8 439.851C247.17 436.691 248.74 433.621 250.51 430.671C246.9 429.771 243.13 429.531 239.44 429.981C240.75 427.681 243.23 422.911 244.94 419.761C247.47 418.521 250.14 417.561 252.87 416.881C256.52 423.711 260.68 436.081 263.66 442.451Z"
       fill="#fff"
       id="path19"
       style="fill:#ffcb71;fill-opacity:0.01067616" />
  </g>
  <g
     id="change1_20"
     style="fill:#ffffff;fill-opacity:0">
    <path
       d="M274.14 416.929L273.47 418.049C270.54 426.309 266.77 434.249 263.66 442.449C260.68 436.079 256.52 423.709 252.87 416.879C259.81 415.139 267.21 415.169 274.14 416.929Z"
       fill="#fff"
       id="path20"
       style="fill:#ffffff;fill-opacity:0" />
  </g>
  <g
     id="change1_21"
     style="fill:#ffcb71;fill-opacity:0">
    <path
       d="M276.12 433.14C279.04 434.49 281.71 436.35 283.97 438.62C277.68 442.97 271.44 447.57 266.55 453.46C265.32 454.94 261.1 458.54 258.37 461.56C259.13 456.29 260.57 451.09 262.34 446.05C262.53 445.51 262.72 444.97 262.92 444.43C263.16 443.77 263.41 443.11 263.66 442.45C266.77 434.25 270.54 426.31 273.47 418.05L274.14 416.93C276.21 417.46 278.24 418.14 280.21 418.97C281.79 421.82 283.45 425.24 284.93 427.09C281.82 428.84 278.87 430.87 276.12 433.14Z"
       fill="#fff"
       id="path21"
       style="fill:#ffcb71;fill-opacity:0" />
  </g>
  <g
     id="change1_22"
     style="fill:#ffffff;fill-opacity:0.00711744">
    <path
       d="M270.63 406.349C277.76 404.889 283.82 399.229 285.94 392.269C288.06 385.309 286.23 377.319 281.42 371.859C276.62 366.389 269.04 363.549 261.8 364.339C254.84 365.089 248.27 369.179 244.74 375.229C241.21 381.279 240.91 389.139 244.2 395.319C246.36 399.379 249.93 402.619 254.03 404.699C258.13 406.779 262.75 407.759 267.35 407.879L270.63 406.349Z"
       fill="#fff"
       id="path22"
       style="fill:#ffffff;fill-opacity:0.00711744" />
  </g>
  <g
     id="change2_1"
     style="fill:#ffcb71;fill-opacity:1">
    <path
       d="M245.52 39.9804C232.55 42.6704 220.61 49.6504 211.5 59.2304C202.22 68.9904 195.85 81.4504 193.88 94.8004C191.81 108.85 194.11 123.28 200.21 136.09C206.31 148.9 216.37 159.5 228.67 166.54C240.92 173.55 255.22 177.14 269.33 176.52C283.07 175.93 296.59 171.34 307.92 163.57C319.54 155.6 328.73 144.47 333.84 131.3C339.13 117.67 339.92 102.19 335.95 88.1204C331.96 73.9704 322.99 61.9104 311.4 53.0204C298.93 43.4604 283.78 38.1204 268.3 36.0604C264.34 35.5304 260.36 35.2304 256.37 35.1104C253.47 35.0304 253.48 39.5304 256.37 39.6104C271.63 40.0504 287 43.4604 300.34 51.0704C312.15 57.8004 322.23 67.7404 328.15 80.0704C334.05 92.3704 335.37 106.77 332.51 120.06C329.67 133.24 322.74 145.04 312.75 154.07C303.17 162.74 291.13 168.63 278.43 170.99C265.46 173.41 251.89 171.77 239.67 166.89C227.42 162.01 216.48 153.54 209.1 142.58C201.67 131.55 197.61 118.35 197.6 105.05C197.59 92.1204 201.61 79.6204 209.12 69.1004C216.22 59.1704 226.36 51.1604 237.81 46.8704C240.7 45.7904 243.68 44.9304 246.7 44.3104C249.55 43.7304 248.35 39.3904 245.52 39.9804Z"
       fill="#000"
       id="path23"
       style="fill:#ffcb71;fill-opacity:1" />
  </g>
  <g
     id="change2_2"
     style="fill:#ffcb71;fill-opacity:1">
    <path
       d="M271.23 108.229C280.16 106.309 287.46 98.5991 288.78 89.5391C290.21 79.7391 285.45 69.8291 276.78 64.9691C268.47 60.3091 257.95 60.6291 250.08 66.0691C241.84 71.7691 237.74 82.1191 240.54 91.8791C243.9 103.619 255.92 109.449 267.36 109.819C270.26 109.909 270.25 105.409 267.36 105.319C258.85 105.039 249.98 101.479 245.96 93.5091C242.23 86.1191 244.45 76.8991 250.46 71.4591C256.29 66.1791 264.64 64.8391 271.93 67.6191C279.44 70.4791 284.5 77.8091 284.56 85.8291C284.63 94.4491 278.44 102.069 270.03 103.879C267.2 104.499 268.4 108.839 271.23 108.229Z"
       fill="#000"
       id="path24"
       style="fill:#ffcb71;fill-opacity:1" />
  </g>
  <g
     id="change2_3"
     style="fill:#ffcb71;fill-opacity:1">
    <path
       d="M223.64 154.849C224.63 139.159 235.51 124.579 250.5 119.619C258.51 116.969 267.25 116.869 275.33 119.309C283.06 121.639 289.88 126.409 294.8 132.809C300.19 139.809 303.28 148.509 303.32 157.349C303.33 160.249 307.83 160.249 307.82 157.349C307.75 139.449 296.43 122.629 279.74 116.079C262.54 109.329 242.16 114.129 230.11 128.179C223.7 135.649 219.77 145.009 219.15 154.849C218.96 157.749 223.46 157.729 223.64 154.849Z"
       fill="#000"
       id="path25"
       style="fill:#ffcb71;fill-opacity:1" />
  </g>
  <g
     id="change2_4"
     style="fill:#ffcb71;fill-opacity:1">
    <path
       d="M245.52 340.269C232.55 342.959 220.61 349.939 211.5 359.519C202.22 369.279 195.85 381.739 193.88 395.089C191.81 409.139 194.11 423.57 200.21 436.38C206.31 449.189 216.37 459.789 228.67 466.829C240.92 473.839 255.22 477.429 269.33 476.809C283.07 476.219 296.59 471.629 307.92 463.859C319.54 455.889 328.73 444.759 333.84 431.589C339.13 417.959 339.92 402.479 335.95 388.41C331.96 374.259 322.99 362.199 311.4 353.309C298.93 343.749 283.78 338.41 268.3 336.35C264.34 335.82 260.36 335.519 256.37 335.399C253.47 335.319 253.48 339.819 256.37 339.899C271.63 340.339 287 343.749 300.34 351.359C312.15 358.089 322.23 368.029 328.15 380.359C334.05 392.659 335.37 407.06 332.51 420.35C329.67 433.53 322.74 445.329 312.75 454.359C303.17 463.029 291.13 468.919 278.43 471.279C265.46 473.699 251.89 472.059 239.67 467.179C227.42 462.299 216.48 453.829 209.1 442.869C201.67 431.839 197.61 418.639 197.6 405.339C197.59 392.409 201.61 379.91 209.12 369.39C216.22 359.46 226.36 351.45 237.81 347.16C240.7 346.08 243.68 345.22 246.7 344.6C249.55 344.02 248.35 339.679 245.52 340.269Z"
       fill="#000"
       id="path26"
       style="fill:#ffcb71;fill-opacity:1" />
  </g>
  <g
     id="change2_5"
     style="fill:#ffcb71;fill-opacity:1">
    <path
       d="M271.23 408.52C280.16 406.6 287.46 398.89 288.78 389.83C290.21 380.03 285.45 370.12 276.78 365.26C268.47 360.6 257.95 360.92 250.08 366.36C241.84 372.06 237.74 382.41 240.54 392.17C243.9 403.91 255.92 409.74 267.36 410.11C270.26 410.2 270.25 405.7 267.36 405.61C258.85 405.33 249.98 401.77 245.96 393.8C242.23 386.41 244.45 377.19 250.46 371.75C256.29 366.47 264.64 365.13 271.93 367.91C279.44 370.77 284.5 378.1 284.56 386.12C284.63 394.74 278.44 402.36 270.03 404.17C267.2 404.79 268.4 409.12 271.23 408.52Z"
       fill="#000"
       id="path27"
       style="fill:#ffcb71;fill-opacity:1" />
  </g>
  <g
     id="change2_6"
     style="fill:#ffcb71;fill-opacity:1">
    <path
       d="M223.64 455.14C224.63 439.45 235.51 424.87 250.5 419.91C258.51 417.26 267.25 417.16 275.33 419.6C283.06 421.93 289.88 426.7 294.8 433.1C300.19 440.1 303.28 448.8 303.32 457.64C303.33 460.54 307.83 460.54 307.82 457.64C307.75 439.74 296.43 422.92 279.74 416.37C262.54 409.62 242.16 414.42 230.11 428.47C223.7 435.94 219.77 445.3 219.15 455.14C218.96 458.03 223.46 458.02 223.64 455.14Z"
       fill="#000"
       id="path28"
       style="fill:#ffcb71;fill-opacity:1" />
  </g>
  <g
     id="change2_7"
     style="fill:#ffcb71;fill-opacity:1">
    <path
       d="M392.83 192.961C379.86 195.651 367.92 202.631 358.81 212.211C349.53 221.971 343.16 234.431 341.19 247.781C339.12 261.831 341.42 276.261 347.52 289.071C353.62 301.881 363.68 312.481 375.98 319.521C388.23 326.531 402.53 330.121 416.64 329.501C430.38 328.911 443.9 324.321 455.23 316.551C466.85 308.581 476.04 297.451 481.15 284.281C486.44 270.651 487.23 255.171 483.26 241.101C479.27 226.951 470.3 214.891 458.71 206.001C446.24 196.441 431.09 191.101 415.61 189.041C411.65 188.511 407.67 188.211 403.68 188.091C400.78 188.011 400.79 192.511 403.68 192.591C418.94 193.031 434.31 196.441 447.65 204.051C459.46 210.781 469.54 220.721 475.46 233.051C481.36 245.351 482.68 259.751 479.82 273.041C476.98 286.221 470.05 298.021 460.06 307.051C450.48 315.721 438.44 321.611 425.74 323.971C412.77 326.391 399.2 324.751 386.98 319.871C374.73 314.991 363.79 306.521 356.41 295.561C348.98 284.531 344.92 271.331 344.91 258.031C344.9 245.101 348.92 232.601 356.43 222.081C363.53 212.151 373.67 204.141 385.12 199.851C388.01 198.771 390.99 197.911 394.01 197.291C396.86 196.711 395.66 192.371 392.83 192.961Z"
       fill="#000"
       id="path29"
       style="fill:#ffcb71;fill-opacity:1" />
  </g>
  <g
     id="change2_8"
     style="fill:#ffcb71;fill-opacity:1">
    <path
       d="M247.43 207.29C232.66 210.4 220.69 223.22 218.59 238.16C216.35 254.1 224.19 270.16 238.22 278.09C251.97 285.86 269.34 285.26 282.35 276.22C288.85 271.7 293.91 265.48 296.75 258.08C299.64 250.55 300.03 241.97 297.85 234.2C293.13 217.45 277.01 207.43 260.52 205.19C258.22 204.88 255.92 204.69 253.6 204.62C250.7 204.53 250.71 209.03 253.6 209.12C268.74 209.58 284.6 216.09 291.6 230.33C298.07 243.49 294.27 259.82 283.6 269.53C273.16 279.03 258.09 281.52 245.03 276.39C231.74 271.18 222.81 258.24 222.69 243.97C222.57 230.54 231.1 217.82 243.74 213.05C245.33 212.45 246.97 211.99 248.63 211.63C251.45 211.03 250.26 206.7 247.43 207.29Z"
       fill="#000"
       id="path30"
       style="fill:#ffcb71;fill-opacity:1" />
  </g>
  <g
     id="change2_9"
     style="fill:#ffcb71;fill-opacity:1">
    <path
       d="M418.54 261.21C427.47 259.29 434.77 251.58 436.09 242.52C437.52 232.72 432.76 222.81 424.09 217.95C415.78 213.29 405.26 213.61 397.39 219.05C389.15 224.75 385.05 235.1 387.85 244.86C391.21 256.6 403.23 262.43 414.67 262.8C417.57 262.89 417.56 258.39 414.67 258.3C406.16 258.02 397.29 254.46 393.27 246.49C389.54 239.1 391.76 229.88 397.77 224.44C403.6 219.16 411.95 217.82 419.24 220.6C426.75 223.46 431.81 230.79 431.87 238.81C431.94 247.43 425.75 255.05 417.34 256.86C414.51 257.48 415.71 261.81 418.54 261.21Z"
       fill="#000"
       id="path31"
       style="fill:#ffcb71;fill-opacity:1" />
  </g>
  <g
     id="change2_10"
     style="fill:#ffcb71;fill-opacity:1">
    <path
       d="M370.95 307.83C371.94 292.14 382.82 277.56 397.81 272.6C405.82 269.95 414.56 269.85 422.64 272.29C430.37 274.62 437.19 279.39 442.11 285.79C447.5 292.79 450.59 301.49 450.63 310.33C450.64 313.23 455.14 313.23 455.13 310.33C455.06 292.43 443.74 275.61 427.05 269.06C409.85 262.31 389.47 267.11 377.42 281.16C371.01 288.63 367.08 297.99 366.46 307.83C366.27 310.72 370.77 310.71 370.95 307.83Z"
       fill="#000"
       id="path32"
       style="fill:#ffcb71;fill-opacity:1" />
  </g>
  <g
     id="change2_11"
     style="fill:#ffcb71;fill-opacity:1">
    <path
       d="M78.6595 192.961C65.6895 195.651 53.7495 202.631 44.6395 212.211C35.3595 221.971 28.9895 234.431 27.0195 247.781C24.9495 261.831 27.2495 276.261 33.3495 289.071C39.4495 301.881 49.5095 312.481 61.8095 319.521C74.0595 326.531 88.3595 330.121 102.47 329.501C116.21 328.911 129.73 324.321 141.06 316.551C152.68 308.581 161.87 297.451 166.98 284.281C172.27 270.651 173.06 255.171 169.09 241.101C165.1 226.951 156.13 214.891 144.54 206.001C132.07 196.441 116.92 191.101 101.44 189.041C97.4795 188.511 93.4995 188.211 89.5095 188.091C86.6095 188.011 86.6195 192.511 89.5095 192.591C104.77 193.031 120.14 196.441 133.48 204.051C145.29 210.781 155.37 220.721 161.29 233.051C167.189 245.351 168.51 259.751 165.65 273.041C162.81 286.221 155.88 298.021 145.89 307.051C136.3 315.721 124.27 321.611 111.57 323.971C98.5995 326.391 85.0295 324.751 72.8095 319.871C60.5595 314.991 49.6195 306.521 42.2395 295.561C34.8095 284.531 30.7495 271.331 30.7395 258.031C30.7295 245.101 34.7495 232.601 42.2595 222.081C49.3595 212.151 59.4995 204.141 70.9495 199.851C73.8395 198.771 76.8195 197.911 79.8395 197.291C82.6895 196.711 81.4895 192.371 78.6595 192.961Z"
       fill="#000"
       id="path33"
       style="fill:#ffcb71;fill-opacity:1" />
  </g>
  <g
     id="change2_12"
     style="fill:#ffcb71;fill-opacity:1">
    <path
       d="M104.36 261.21C113.29 259.29 120.59 251.58 121.91 242.52C123.34 232.72 118.58 222.81 109.91 217.95C101.6 213.29 91.0797 213.61 83.2097 219.05C74.9697 224.75 70.8697 235.1 73.6697 244.86C77.0297 256.6 89.0497 262.43 100.49 262.8C103.39 262.89 103.38 258.39 100.49 258.3C91.9797 258.02 83.1097 254.46 79.0897 246.49C75.3597 239.1 77.5797 229.88 83.5897 224.44C89.4197 219.16 97.7697 217.82 105.06 220.6C112.57 223.46 117.63 230.79 117.69 238.81C117.76 247.43 111.57 255.05 103.16 256.86C100.34 257.48 101.53 261.81 104.36 261.21Z"
       fill="#000"
       id="path34"
       style="fill:#ffcb71;fill-opacity:1" />
  </g>
  <g
     id="change2_13"
     style="fill:#ffcb71;fill-opacity:1">
    <path
       d="M56.7703 307.83C57.7603 292.14 68.6403 277.56 83.6303 272.6C91.6403 269.95 100.38 269.85 108.46 272.29C116.19 274.62 123.01 279.39 127.93 285.79C133.32 292.79 136.41 301.49 136.45 310.33C136.46 313.23 140.96 313.23 140.95 310.33C140.88 292.43 129.56 275.61 112.87 269.06C95.6703 262.31 75.2903 267.11 63.2403 281.16C56.8303 288.63 52.9003 297.99 52.2803 307.83C52.0903 310.72 56.5903 310.71 56.7703 307.83Z"
       fill="#000"
       id="path35"
       style="fill:#ffcb71;fill-opacity:1" />
  </g>
  <g
     id="change2_14"
     style="fill:#ffcb71;fill-opacity:1">
    <path
       d="M254.21 118.27C254.9 119.57 255.58 120.87 256.27 122.18C256.9 123.39 257.46 124.72 258.24 125.84C258.79 126.62 259.49 127.27 260.43 127.54C261.33 127.8 262.2 127.66 263.11 127.52C264.58 127.29 266.05 127.06 267.52 126.83C268.69 126.65 269.44 125.13 269.09 124.06C268.68 122.79 267.57 122.29 266.32 122.49C265.06 122.69 263.79 122.89 262.53 123.09C262.23 123.14 261.94 123.19 261.64 123.23C261.94 123.19 261.89 123.15 261.63 123.2C261.36 123.26 261.98 123.29 261.72 123.22C261.51 123.17 262.01 123.38 262.09 123.46C261.85 123.25 262.13 123.46 262.14 123.57C262.13 123.42 261.81 123.03 261.74 122.89C260.52 120.6 259.32 118.3 258.11 116.01C257.56 114.97 256.02 114.56 255.03 115.2C253.95 115.88 253.62 117.15 254.21 118.27Z"
       fill="#000"
       id="path36"
       style="fill:#ffcb71;fill-opacity:1" />
  </g>
  <g
     id="change2_15"
     style="fill:#ffcb71;fill-opacity:1">
    <path
       d="M269.71 116.271C268.37 119.121 266.71 121.991 265.7 124.981C265.17 126.541 265.35 128.091 265.55 129.691C265.75 131.251 265.96 132.821 266.21 134.371C267.14 140.171 268.67 145.921 271.7 151.011C271.7 150.251 271.7 149.501 271.7 148.741C269.66 153.031 267.07 157.031 263.91 160.581C264.97 161.641 266.03 162.701 267.09 163.761C267.13 163.561 267.2 163.491 267.33 163.531C269.89 162.171 267.62 158.281 265.06 159.641C264.62 159.881 264.22 160.181 263.91 160.571C263.16 161.531 262.98 162.821 263.91 163.751C264.73 164.571 266.28 164.661 267.09 163.751C269.91 160.591 272.38 157.111 274.39 153.381C274.88 152.471 275.54 151.461 275.82 150.461C276.15 149.251 275.28 148.231 274.74 147.231C273.86 145.561 273.16 143.821 272.58 142.021C271.38 138.291 270.69 134.411 270.17 130.531C270.03 129.501 269.8 128.411 269.83 127.381C269.86 126.351 270.33 125.511 270.76 124.591C271.71 122.571 272.65 120.551 273.6 118.531C274.12 117.431 273.91 116.101 272.79 115.451C271.82 114.891 270.23 115.171 269.71 116.271Z"
       fill="#000"
       id="path37"
       style="fill:#ffcb71;fill-opacity:1" />
  </g>
  <g
     id="change2_16"
     style="fill:#ffcb71;fill-opacity:1">
    <path
       d="M258.16 127.18C257.6 133.9 255.98 140.48 253.44 146.72C252.8 148.28 252.37 149.84 252.92 151.5C253.42 153 254.27 154.46 255.06 155.82C256.69 158.59 258.69 161.16 260.93 163.46C262.95 165.54 266.13 162.36 264.11 160.28C262.12 158.24 260.39 156.01 258.95 153.55C258.58 152.93 258.24 152.3 257.91 151.65C257.65 151.15 257.2 150.51 257.15 149.93C257.09 149.33 257.47 148.67 257.69 148.13C258.01 147.34 258.33 146.54 258.62 145.74C260.82 139.77 262.13 133.51 262.65 127.18C262.75 125.97 261.54 124.93 260.4 124.93C259.11 124.93 258.26 125.96 258.16 127.18Z"
       fill="#000"
       id="path38"
       style="fill:#ffcb71;fill-opacity:1" />
  </g>
  <g
     id="change2_17"
     style="fill:#ffcb71;fill-opacity:1">
    <path
       d="M106.9 270.58C102.29 278.49 98.4505 286.86 95.4605 295.52C92.3805 304.45 90.1605 313.74 89.8705 323.21C89.7805 326.11 94.2805 326.1 94.3705 323.21C94.6505 314.14 96.8405 305.27 99.8005 296.72C102.67 288.42 106.37 280.44 110.79 272.86C112.24 270.34 108.35 268.07 106.9 270.58Z"
       fill="#000"
       id="path39"
       style="fill:#ffcb71;fill-opacity:1" />
  </g>
  <g
     id="change2_18"
     style="fill:#ffcb71;fill-opacity:1">
    <path
       d="M114 273.071C106.8 289.471 101.54 306.661 98.45 324.311C98.24 325.511 98.77 326.731 100.02 327.081C101.11 327.381 102.58 326.711 102.79 325.511C105.81 308.271 110.85 291.381 117.89 275.351C118.38 274.241 118.22 272.931 117.08 272.271C116.12 271.711 114.49 271.961 114 273.071Z"
       fill="#000"
       id="path40"
       style="fill:#ffcb71;fill-opacity:1" />
  </g>
  <g
     id="change2_19"
     style="fill:#ffcb71;fill-opacity:1">
    <path
       d="M83.7097 271.64C88.4797 278.01 92.0997 285.12 94.3597 292.75C95.1797 295.52 99.5297 294.34 98.6997 291.55C96.3297 283.57 92.5897 276.02 87.5897 269.36C86.8597 268.39 85.6497 267.89 84.5097 268.55C83.5597 269.12 82.9697 270.66 83.7097 271.64Z"
       fill="#000"
       id="path41"
       style="fill:#ffcb71;fill-opacity:1" />
  </g>
  <g
     id="change2_20"
     style="fill:#ffcb71;fill-opacity:1">
    <path
       d="M76.2401 275.179C79.3601 279.379 82.6701 283.499 85.4901 287.899C88.2601 292.219 90.2701 296.959 92.2401 301.689C92.7101 302.809 93.7301 303.609 95.0101 303.259C96.0701 302.969 97.0501 301.619 96.5801 300.489C94.5201 295.549 92.4801 290.559 89.6301 286.019C86.7701 281.459 83.3401 277.219 80.1301 272.899C79.4101 271.929 78.1801 271.429 77.0501 272.089C76.0901 272.659 75.5101 274.189 76.2401 275.179Z"
       fill="#000"
       id="path42"
       style="fill:#ffcb71;fill-opacity:1" />
  </g>
  <g
     id="change2_21"
     style="fill:#ffcb71;fill-opacity:1">
    <path
       d="M271.3 417.46C264.93 435.29 254.53 452.6 255.64 472.19C255.8 475.07 260.3 475.09 260.14 472.19C259.06 453.08 269.43 436.06 275.64 418.66C276.62 415.92 272.27 414.74 271.3 417.46Z"
       fill="#000"
       id="path43"
       style="fill:#ffcb71;fill-opacity:1" />
  </g>
  <g
     id="change2_22"
     style="fill:#ffcb71;fill-opacity:1">
    <path
       d="M276.84 420.541C279.01 423.251 281.17 425.971 283.34 428.681C283.49 427.501 283.64 426.321 283.8 425.151C280.53 427.011 277.45 429.161 274.54 431.561C273.48 432.431 273.76 434.511 275 435.091C277.76 436.391 280.22 438.081 282.4 440.221C282.55 439.041 282.7 437.861 282.86 436.691C278.29 439.851 273.75 443.131 269.68 446.931C265.83 450.531 261.55 454.911 260.42 460.241C259.82 463.061 264.16 464.271 264.76 461.441C265.76 456.741 269.79 452.951 273.19 449.811C276.9 446.391 280.99 443.441 285.13 440.571C286.3 439.761 286.68 438.121 285.59 437.041C283.16 434.651 280.37 432.661 277.28 431.211C277.43 432.391 277.58 433.571 277.74 434.741C280.35 432.591 283.15 430.711 286.09 429.041C287.46 428.261 287.42 426.611 286.55 425.511C284.38 422.801 282.22 420.081 280.05 417.371C279.29 416.421 277.66 416.581 276.87 417.371C275.9 418.301 276.08 419.591 276.84 420.541Z"
       fill="#000"
       id="path44"
       style="fill:#ffcb71;fill-opacity:1" />
  </g>
  <g
     id="change2_23"
     style="fill:#ffcb71;fill-opacity:1">
    <path
       d="M251.15 419.7C255.41 425.81 256.7 433.36 260.07 439.93C261.39 442.51 265.28 440.23 263.96 437.66C260.58 431.09 259.31 423.57 255.04 417.43C254.35 416.43 253.07 415.97 251.96 416.62C250.97 417.2 250.45 418.7 251.15 419.7Z"
       fill="#000"
       id="path45"
       style="fill:#ffcb71;fill-opacity:1" />
  </g>
  <g
     id="change2_24"
     style="fill:#ffcb71;fill-opacity:1">
    <path
       d="M242.24 420.529C240.66 423.299 239.07 426.079 237.49 428.849C236.72 430.199 237.67 432.439 239.43 432.239C242.96 431.839 246.46 432.009 249.91 432.849C249.46 431.749 249.01 430.649 248.57 429.539C246.8 432.499 245.23 435.559 243.86 438.729C243.11 440.449 244.35 442.579 246.4 442.039C251.04 440.809 255.28 443.689 258.48 446.739C260.57 448.739 263.76 445.559 261.66 443.559C257.26 439.349 251.48 436.029 245.2 437.699C246.05 438.799 246.89 439.899 247.74 441.009C249.11 437.849 250.68 434.779 252.45 431.819C253.18 430.599 252.51 428.859 251.11 428.509C247.29 427.579 243.35 427.299 239.43 427.739C240.08 428.869 240.73 429.999 241.37 431.129C242.95 428.359 244.54 425.579 246.12 422.809C247.57 420.279 243.68 418.009 242.24 420.529Z"
       fill="#000"
       id="path46"
       style="fill:#ffcb71;fill-opacity:1" />
  </g>
  <g
     id="change2_25"
     style="fill:#ffcb71;fill-opacity:1">
    <path
       d="M255.5 285.199C254.16 301.149 254.15 317.189 255.46 333.139C255.56 334.349 256.42 335.389 257.71 335.389C258.85 335.389 260.06 334.359 259.96 333.139C258.65 317.189 258.66 301.149 260 285.199C260.1 283.989 258.89 282.949 257.75 282.949C256.45 282.949 255.61 283.989 255.5 285.199Z"
       fill="#000"
       id="path47"
       style="fill:#ffcb71;fill-opacity:1" />
  </g>
  <g
     id="change2_26"
     style="fill:#ffcb71;fill-opacity:1">
    <path
       d="M257.79 175.189C256.99 186.449 257.05 197.749 257.96 208.999C258.06 210.209 258.92 211.249 260.21 211.249C261.35 211.249 262.56 210.219 262.46 208.999C261.54 197.749 261.49 186.449 262.29 175.189C262.49 172.299 257.99 172.309 257.79 175.189Z"
       fill="#000"
       id="path48"
       style="fill:#ffcb71;fill-opacity:1" />
  </g>
  <g
     id="change2_27"
     style="fill:#ffcb71;fill-opacity:1">
    <path
       d="M173.54 250.94C186.48 250.52 199.45 251.23 212.26 253.13C213.46 253.31 214.68 252.83 215.03 251.56C215.32 250.5 214.67 248.97 213.46 248.79C200.25 246.83 186.9 246.01 173.55 246.44C170.66 246.53 170.64 251.03 173.54 250.94Z"
       fill="#000"
       id="path49"
       style="fill:#ffcb71;fill-opacity:1" />
  </g>
  <g
     id="change2_28"
     style="fill:#ffcb71;fill-opacity:1">
    <path
       d="M302.01 247.2C314.3 247.8 326.59 248.41 338.88 249.01C341.77 249.15 341.77 244.65 338.88 244.51C326.59 243.91 314.3 243.3 302.01 242.7C299.11 242.56 299.12 247.06 302.01 247.2Z"
       fill="#000"
       id="path50"
       style="fill:#ffcb71;fill-opacity:1" />
  </g>
  <g
     id="change2_29"
     style="fill:#ffcb71;fill-opacity:1">
    <path
       d="M96.7399 338.25C98.0199 345.97 100.79 353.4 104.06 360.47C107.93 368.84 112.71 376.79 118.12 384.25C129.36 399.749 143.63 414.079 160.97 422.619C170.06 427.1 180.03 429.87 190.21 429.6C193.1 429.52 193.11 425.02 190.21 425.1C172.51 425.58 156.11 416.43 143.09 405.14C129.11 393.02 117.6 377.79 109.39 361.22C105.61 353.59 102.48 345.479 101.08 337.049C100.88 335.849 99.3999 335.18 98.3099 335.48C97.0399 335.84 96.5399 337.05 96.7399 338.25Z"
       fill="#000"
       id="path51"
       style="fill:#ffcb71;fill-opacity:1" />
  </g>
  <g
     id="change2_30"
     style="fill:#ffcb71;fill-opacity:1">
    <path
       d="M420.79 186.011C418.55 169.241 412.58 153.131 403.51 138.851C394.45 124.601 382.48 112.221 368.45 102.811C360.54 97.5007 351.97 93.2007 342.98 90.0307C340.24 89.0607 339.07 93.4107 341.78 94.3707C356.97 99.7407 370.82 108.631 382.34 119.871C393.89 131.141 403.24 144.811 409.27 159.811C412.65 168.211 415.08 177.041 416.28 186.021C416.44 187.221 417.2 188.271 418.53 188.271C419.63 188.261 420.95 187.221 420.79 186.011Z"
       fill="#000"
       id="path52"
       style="fill:#ffcb71;fill-opacity:1" />
  </g>
  <g
     id="change2_31"
     style="fill:#ffcb71;fill-opacity:1">
    <path
       d="M333.55 426.37C351.27 423.99 367.88 416.28 381.95 405.38C396.3 394.26 408.07 379.63 414.9 362.74C418.69 353.35 420.76 343.28 420.79 333.14C420.8 330.24 416.3 330.24 416.29 333.14C416.25 350.47 409.76 367.04 399.63 380.94C389.43 394.93 375.51 406.31 359.91 413.79C351.62 417.76 342.67 420.65 333.55 421.87C332.35 422.03 331.3 422.79 331.3 424.12C331.3 425.21 332.34 426.53 333.55 426.37Z"
       fill="#000"
       id="path53"
       style="fill:#ffcb71;fill-opacity:1" />
  </g>
  <g
     id="change2_32"
     style="fill:#ffcb71;fill-opacity:1">
    <path
       d="M99.8899 184.311C105.42 167.191 114.38 151.201 125.89 137.401C137.47 123.511 151.54 111.751 167.33 102.931C176.19 97.9907 185.54 94.0207 195.26 91.1207C198.03 90.2907 196.85 85.9507 194.06 86.7807C176.1 92.1407 159.38 101.091 144.71 112.731C130.22 124.241 117.83 138.451 108.45 154.401C103.12 163.461 98.7799 173.121 95.5399 183.121C94.6599 185.881 98.9999 187.061 99.8899 184.311Z"
       fill="#000"
       id="path54"
       style="fill:#ffcb71;fill-opacity:1" />
  </g>
</svg>
