<?xml version="1.0" encoding="UTF-8" standalone="no"?>
<svg
   data-name="Layer 4"
   height="905"
   preserveAspectRatio="xMidYMid meet"
   version="1.0"
   viewBox="47.6 47.6 904.8 904.8"
   width="905"
   zoomAndPan="magnify"
   id="svg2"
   sodipodi:docname="s-1 (3).svg"
   inkscape:version="1.4 (e7c3feb1, 2024-10-09)"
   xmlns:inkscape="http://www.inkscape.org/namespaces/inkscape"
   xmlns:sodipodi="http://sodipodi.sourceforge.net/DTD/sodipodi-0.dtd"
   xmlns="http://www.w3.org/2000/svg"
   xmlns:svg="http://www.w3.org/2000/svg">
  <defs
     id="defs2" />
  <sodipodi:namedview
     id="namedview2"
     pagecolor="#ffffff"
     bordercolor="#000000"
     borderopacity="0.25"
     inkscape:showpageshadow="2"
     inkscape:pageopacity="0.0"
     inkscape:pagecheckerboard="0"
     inkscape:deskcolor="#d1d1d1"
     inkscape:zoom="0.47946001"
     inkscape:cx="545.40524"
     inkscape:cy="419.22162"
     inkscape:window-width="1680"
     inkscape:window-height="997"
     inkscape:window-x="0"
     inkscape:window-y="25"
     inkscape:window-maximized="1"
     inkscape:current-layer="svg2" />
  <g
     id="change1_1"
     style="fill:#ffcb71;fill-opacity:1">
    <path
       d="M666.86,494H617.29A117.59,117.59,0,0,0,506,382.71V333.14a6,6,0,0,0-12,0v49.57A117.59,117.59,0,0,0,382.71,494H333.14a6,6,0,0,0,0,12h49.57A117.59,117.59,0,0,0,494,617.29v49.57a6,6,0,1,0,12,0V617.29A117.59,117.59,0,0,0,617.29,506h49.57a6,6,0,1,0,0-12Zm-61.59,0H506V394.73A105.58,105.58,0,0,1,605.27,494ZM494,394.73V494H394.73A105.58,105.58,0,0,1,494,394.73ZM394.73,506H494v99.27A105.58,105.58,0,0,1,394.73,506ZM506,605.27V506h99.27A105.58,105.58,0,0,1,506,605.27Z"
       id="path1"
       style="fill:#ffcb71;fill-opacity:1" />
  </g>
  <g
     id="change1_2"
     style="fill:#ffcb71;fill-opacity:1">
    <path
       d="M946.09,494H900.84A400.52,400.52,0,0,0,506,99.16V53.91a6,6,0,1,0-12,0V99.16A400.54,400.54,0,0,0,99.16,494H53.91a6,6,0,1,0,0,12H99.16A400.54,400.54,0,0,0,494,900.84v45.25a6,6,0,1,0,12,0V900.84A400.54,400.54,0,0,0,900.84,506h45.25a6,6,0,1,0,0-12Zm-57.25,0h-49.6A339.24,339.24,0,0,0,506,160.76v-49.6C715.68,114.35,885.65,284.32,888.84,494ZM756.06,506h71.18C824.06,681.72,681.72,824.06,506,827.24V756.06a6,6,0,0,0-12,0v71.18C318.28,824.06,175.94,681.72,172.76,506h71.18a6,6,0,1,0,0-12H172.76C175.94,318.28,318.28,175.94,494,172.76v71.18a6,6,0,1,0,12,0V172.76C681.72,175.94,824.06,318.28,827.24,494H756.06a6,6,0,0,0,0,12ZM494,111.16v49.6A339.24,339.24,0,0,0,160.76,494h-49.6C114.35,284.32,284.32,114.35,494,111.16ZM111.16,506h49.6A339.24,339.24,0,0,0,494,839.24v49.6C284.32,885.65,114.35,715.68,111.16,506ZM506,888.84v-49.6A339.24,339.24,0,0,0,839.24,506h49.6C885.65,715.68,715.68,885.65,506,888.84Z"
       id="path2"
       style="fill:#ffcb71;fill-opacity:1" />
  </g>
</svg>
